<?xml version="1.0" encoding="UTF-8" standalone="no"?><!-- Generator: Gravit.io --><svg xmlns="http://www.w3.org/2000/svg" xmlns:xlink="http://www.w3.org/1999/xlink" style="isolation:isolate" viewBox="0 0 300 60" width="300pt" height="60pt"><defs><clipPath id="_clipPath_ivjrTAsqeQBkZwgsP19uhXM7mKzpgno3"><rect width="300" height="60"/></clipPath></defs><g clip-path="url(#_clipPath_ivjrTAsqeQBkZwgsP19uhXM7mKzpgno3)"><g><g clip-path="url(#_clipPath_9Kl1R5msFj00PB0TfGG5q9Nmm6V6gq8D)"><text transform="matrix(1,0,0,1,2.5,41.712)" style="font-family:'Noto Sans Devanagari';font-weight:700;font-size:48px;font-style:normal;fill:#3f3f46;stroke:none;">अक्ष</text></g><defs><clipPath id="_clipPath_9Kl1R5msFj00PB0TfGG5q9Nmm6V6gq8D"><rect x="0" y="0" width="81" height="62.592" transform="matrix(1,0,0,1,2.5,-1.296)"/></clipPath></defs><g clip-path="url(#_clipPath_HIH1KTox19meavHy8CwgagHPllA4heKN)"><text transform="matrix(1,0,0,1,83.5,42.211)" style="font-family:'Arial';font-weight:700;font-size:32px;font-style:normal;fill:#3f3f46;stroke:none;">FOUNDATION</text></g><defs><clipPath id="_clipPath_HIH1KTox19meavHy8CwgagHPllA4heKN"><rect x="0" y="0" width="220" height="35.75" transform="matrix(1,0,0,1,83.5,13.242)"/></clipPath></defs><mask id="_mask_FpjTKkgcRQIdhXXzny7NhJfKcIwrHLoQ"><rect x="67.5" y="11.335" width="227" height="5.815" fill="white" stroke="none"/></mask><rect x="67.5" y="11.335" width="227" height="5.815" transform="matrix(1,0,0,1,0,0)" fill="rgb(63,63,70)"/><rect x="67.5" y="11.335" width="227" height="5.815" transform="matrix(1,0,0,1,0,0)" fill="rgb(63,63,70)" mask="url(#_mask_FpjTKkgcRQIdhXXzny7NhJfKcIwrHLoQ)" vector-effect="non-scaling-stroke" stroke-width="2.4" stroke="rgb(63,63,70)" stroke-linejoin="miter" stroke-linecap="square" stroke-miterlimit="2"/></g></g></svg>