<?xml version="1.0" encoding="UTF-8" standalone="no"?><!-- Generator: Gravit.io --><svg xmlns="http://www.w3.org/2000/svg" xmlns:xlink="http://www.w3.org/1999/xlink" style="isolation:isolate" viewBox="0 0 260 50" width="260pt" height="50pt"><defs><clipPath id="_clipPath_0AeTWAky7AmlL6aS9N0s3b5xyMt3Xgs9"><rect width="260" height="50"/></clipPath></defs><g clip-path="url(#_clipPath_0AeTWAky7AmlL6aS9N0s3b5xyMt3Xgs9)"><path d=" M 36.231 32.5 L 30.893 32.5 Q 30.401 36.154 27.541 38.519 L 27.541 38.519 L 27.541 38.519 Q 24.086 41.375 18.397 41.375 L 18.397 41.375 L 18.397 41.375 Q 13.075 41.375 9.694 38.567 L 9.694 38.567 L 9.694 38.567 Q 6.313 35.76 6.313 31.146 L 6.313 31.146 L 13.368 31.146 L 13.368 31.146 Q 13.368 33.147 14.87 34.417 L 14.87 34.417 L 14.87 34.417 Q 16.371 35.687 18.568 35.687 L 18.568 35.687 L 18.568 35.687 Q 21.083 35.687 22.511 34.356 L 22.511 34.356 L 22.511 34.356 Q 23.939 33.025 23.939 30.828 L 23.939 30.828 L 23.939 30.828 Q 23.939 25.506 18.08 25.506 L 18.08 25.506 L 14.345 25.506 L 14.345 25.506 L 14.345 25.506 L 14.345 19.988 L 18.104 19.988 L 18.104 19.988 Q 20.79 19.988 22.084 18.646 L 22.084 18.646 L 22.084 18.646 Q 23.378 17.303 23.378 15.081 L 23.378 15.081 L 23.378 15.081 Q 23.378 12.933 22.096 11.736 L 22.096 11.736 L 22.096 11.736 Q 20.814 10.54 18.568 10.54 L 18.568 10.54 L 18.568 10.54 Q 16.542 10.54 15.175 11.651 L 15.175 11.651 L 15.175 11.651 Q 13.808 12.762 13.808 14.544 L 13.808 14.544 L 6.752 14.544 L 6.752 14.544 Q 6.752 11.761 8.253 9.551 L 8.253 9.551 L 8.253 9.551 Q 9.755 7.342 12.453 6.097 L 12.453 6.097 L 12.453 6.097 Q 15.15 4.852 18.397 4.852 L 18.397 4.852 L 18.397 4.852 Q 24.037 4.852 27.235 7.549 L 27.235 7.549 L 27.235 7.549 Q 30.434 10.247 30.434 14.983 L 30.434 14.983 L 30.434 14.983 Q 30.434 17.425 28.944 19.476 L 28.944 19.476 L 28.944 19.476 Q 27.455 21.526 25.038 22.625 L 25.038 22.625 L 25.038 22.625 Q 28.041 23.699 29.518 25.848 L 29.518 25.848 L 29.518 25.848 Q 30.051 26.623 30.392 27.5 L 30.392 27.5 L 30.392 27.5 L 30.392 27.5 L 30.392 27.5 L 36.231 27.5 L 36.231 14 L 36.231 14 L 36.231 7 L 36.231 7 L 36.231 7 L 36.231 7 L 47.193 7 L 47.193 14 L 43.193 14 L 43.193 40.981 L 36.231 40.981 L 36.231 32.5 Z  M 57.193 12.45 L 57.193 12.45 L 57.193 12.45 Q 55.793 12.45 54.993 13.275 L 54.993 13.275 L 54.993 13.275 Q 54.193 14.1 54.193 15.45 L 54.193 15.45 L 54.193 15.45 Q 54.193 18.35 57.543 19.25 L 57.543 19.25 L 57.543 19.25 Q 60.093 17.9 60.093 15.15 L 60.093 15.15 L 60.093 15.15 Q 60.093 13.95 59.293 13.2 L 59.293 13.2 L 59.293 13.2 Q 58.493 12.45 57.193 12.45 L 57.193 12.45 L 57.193 12.45 L 57.193 12.45 L 57.193 12.45 L 57.193 12.45 L 57.193 12.45 L 57.193 12.45 Z  M 99.764 30.743 L 99.764 29.703 L 99.764 29.703 Q 99.764 26.349 98.563 24.606 L 98.563 24.606 L 98.563 24.606 Q 97.361 22.863 95.135 22.863 L 95.135 22.863 L 95.135 22.863 Q 92.923 22.863 91.722 24.584 L 91.722 24.584 L 91.722 24.584 Q 90.521 26.305 90.506 29.63 L 90.506 29.63 L 90.506 30.67 L 90.506 30.67 Q 90.506 33.937 91.707 35.739 L 91.707 35.739 L 91.707 35.739 Q 92.908 37.54 95.164 37.54 L 95.164 37.54 L 95.164 37.54 Q 97.376 37.54 98.563 35.804 L 98.563 35.804 L 98.563 35.804 Q 99.749 34.069 99.764 30.743 L 99.764 30.743 L 99.764 30.743 L 99.764 30.743 L 99.764 30.743 L 99.764 30.743 L 99.764 30.743 L 99.764 30.743 Z  M 119.144 19.523 L 123.553 19.523 L 123.553 33.571 L 123.553 33.571 Q 123.553 37.072 121.363 39.108 L 121.363 39.108 L 121.363 39.108 Q 119.173 41.144 115.379 41.144 L 115.379 41.144 L 115.379 41.144 Q 111.644 41.144 109.446 39.166 L 109.446 39.166 L 109.446 39.166 Q 107.249 37.189 107.205 33.732 L 107.205 33.732 L 107.205 19.523 L 111.6 19.523 L 111.6 33.6 L 111.6 33.6 Q 111.6 35.695 112.603 36.654 L 112.603 36.654 L 112.603 36.654 Q 113.606 37.614 115.379 37.614 L 115.379 37.614 L 115.379 37.614 Q 119.085 37.614 119.144 33.717 L 119.144 33.717 L 119.144 19.523 L 119.144 19.523 L 119.144 19.523 L 119.144 19.523 L 119.144 19.523 L 119.144 19.523 L 119.144 19.523 Z  M 144.5 19.523 L 144.5 40.851 L 140.105 40.851 L 131.551 26.818 L 131.551 40.851 L 127.156 40.851 L 127.156 19.523 L 131.551 19.523 L 140.12 33.585 L 140.12 19.523 L 144.5 19.523 L 144.5 19.523 L 144.5 19.523 L 144.5 19.523 L 144.5 19.523 L 144.5 19.523 L 144.5 19.523 Z  M 154.9 23.082 L 152.732 23.082 L 152.732 37.321 L 154.856 37.321 L 154.856 37.321 Q 157.435 37.321 158.797 35.636 L 158.797 35.636 L 158.797 35.636 Q 160.159 33.951 160.188 30.817 L 160.188 30.817 L 160.188 29.689 L 160.188 29.689 Q 160.188 26.437 158.841 24.76 L 158.841 24.76 L 158.841 24.76 Q 157.493 23.082 154.9 23.082 L 154.9 23.082 L 154.9 23.082 L 154.9 23.082 L 154.9 23.082 L 154.9 23.082 L 154.9 23.082 L 154.9 23.082 Z  M 175.701 24.913 L 173.05 32.897 L 178.382 32.897 L 175.701 24.913 L 175.701 24.913 L 175.701 24.913 L 175.701 24.913 L 175.701 24.913 L 175.701 24.913 L 175.701 24.913 Z  M 202.01 19.523 L 202.01 23.082 L 195.477 23.082 L 195.477 40.851 L 191.082 40.851 L 191.082 23.082 L 184.637 23.082 L 184.637 19.523 L 202.01 19.523 L 202.01 19.523 L 202.01 19.523 L 202.01 19.523 L 202.01 19.523 L 202.01 19.523 L 202.01 19.523 Z  M 209.188 19.523 L 209.188 40.851 L 204.793 40.851 L 204.793 19.523 L 209.188 19.523 L 209.188 19.523 L 209.188 19.523 L 209.188 19.523 L 209.188 19.523 L 209.188 19.523 L 209.188 19.523 Z  M 226.326 30.743 L 226.326 29.703 L 226.326 29.703 Q 226.326 26.349 225.125 24.606 L 225.125 24.606 L 225.125 24.606 Q 223.924 22.863 221.697 22.863 L 221.697 22.863 L 221.697 22.863 Q 219.485 22.863 218.284 24.584 L 218.284 24.584 L 218.284 24.584 Q 217.083 26.305 217.068 29.63 L 217.068 29.63 L 217.068 30.67 L 217.068 30.67 Q 217.068 33.937 218.27 35.739 L 218.27 35.739 L 218.27 35.739 Q 219.471 37.54 221.727 37.54 L 221.727 37.54 L 221.727 37.54 Q 223.938 37.54 225.125 35.804 L 225.125 35.804 L 225.125 35.804 Q 226.312 34.069 226.326 30.743 L 226.326 30.743 L 226.326 30.743 L 226.326 30.743 L 226.326 30.743 L 226.326 30.743 L 226.326 30.743 L 226.326 30.743 Z  M 251.316 19.523 L 251.316 40.851 L 246.922 40.851 L 238.367 26.818 L 238.367 40.851 L 233.973 40.851 L 233.973 19.523 L 238.367 19.523 L 246.937 33.585 L 246.937 19.523 L 251.316 19.523 L 251.316 19.523 L 251.316 19.523 L 251.316 19.523 L 251.316 19.523 L 251.316 19.523 L 251.316 19.523 Z  M 79.393 14 L 79.393 20 L 79.393 20 L 86.193 20 L 86.193 25 L 79.393 25 L 79.393 40.75 L 72.293 40.75 L 72.293 25.15 L 61.593 25.15 L 61.593 25.15 Q 58.643 25.15 56.093 24.55 L 56.093 24.55 L 56.093 24.55 Q 51.293 26.65 51.293 29.85 L 51.293 29.85 L 51.293 29.85 Q 51.293 31.45 52.343 32.375 L 52.343 32.375 L 52.343 32.375 Q 53.393 33.3 55.243 33.3 L 55.243 33.3 L 55.243 33.3 Q 59.943 33.3 60.743 28.3 L 60.743 28.3 L 67.643 28.3 L 67.643 40.75 L 60.643 40.75 L 60.643 36.35 L 60.643 36.35 Q 59.793 37.55 57.893 38.35 L 57.893 38.35 L 57.893 38.35 Q 55.993 39.15 53.793 39.15 L 53.793 39.15 L 53.793 39.15 Q 49.443 39.15 46.793 36.775 L 46.793 36.775 L 46.793 36.775 Q 44.143 34.4 44.143 30.4 L 44.143 30.4 L 44.143 30.4 Q 44.143 24.7 50.393 21.85 L 50.393 21.85 L 50.393 21.85 Q 47.543 19.35 47.543 15.25 L 47.543 15.25 L 47.543 15.25 Q 47.543 11.65 50.118 9.175 L 50.118 9.175 L 50.118 9.175 Q 52.693 6.7 57.043 6.7 L 57.043 6.7 L 57.043 6.7 Q 61.493 6.7 64.093 8.75 L 64.093 8.75 L 64.093 8.75 Q 66.693 10.8 66.693 14.5 L 66.693 14.5 L 66.693 14.5 Q 66.693 17.6 64.343 19.8 L 64.343 19.8 L 72.293 19.8 L 72.293 19.8 L 72.293 19.8 L 72.293 19.8 L 72.293 19.8 L 72.293 19.8 L 72.293 7.2 L 72.788 7.2 L 72.788 7 L 250.75 7 L 250.75 14 L 79.393 14 L 79.393 14 Z  M 104.217 29.718 L 104.217 30.67 L 104.217 30.67 Q 104.217 33.82 103.104 36.193 L 103.104 36.193 L 103.104 36.193 Q 101.99 38.566 99.917 39.855 L 99.917 39.855 L 99.917 39.855 Q 97.845 41.144 95.164 41.144 L 95.164 41.144 L 95.164 41.144 Q 92.513 41.144 90.433 39.869 L 90.433 39.869 L 90.433 39.869 Q 88.353 38.595 87.21 36.229 L 87.21 36.229 L 87.21 36.229 Q 86.067 33.864 86.053 30.787 L 86.053 30.787 L 86.053 29.733 L 86.053 29.733 Q 86.053 26.583 87.188 24.188 L 87.188 24.188 L 87.188 24.188 Q 88.323 21.793 90.396 20.512 L 90.396 20.512 L 90.396 20.512 Q 92.469 19.23 95.135 19.23 L 95.135 19.23 L 95.135 19.23 Q 97.801 19.23 99.874 20.512 L 99.874 20.512 L 99.874 20.512 Q 101.946 21.793 103.082 24.188 L 103.082 24.188 L 103.082 24.188 Q 104.217 26.583 104.217 29.718 L 104.217 29.718 L 104.217 29.718 L 104.217 29.718 L 104.217 29.718 L 104.217 29.718 L 104.217 29.718 L 104.217 29.718 Z  M 154.944 40.851 L 148.338 40.851 L 148.338 19.523 L 154.9 19.523 L 154.9 19.523 Q 157.713 19.523 159.932 20.79 L 159.932 20.79 L 159.932 20.79 Q 162.151 22.057 163.396 24.393 L 163.396 24.393 L 163.396 24.393 Q 164.642 26.73 164.642 29.703 L 164.642 29.703 L 164.642 30.685 L 164.642 30.685 Q 164.642 33.658 163.418 35.973 L 163.418 35.973 L 163.418 35.973 Q 162.195 38.287 159.969 39.562 L 159.969 39.562 L 159.969 39.562 Q 157.742 40.836 154.944 40.851 L 154.944 40.851 L 154.944 40.851 L 154.944 40.851 L 154.944 40.851 L 154.944 40.851 L 154.944 40.851 L 154.944 40.851 Z  M 181.048 40.851 L 179.568 36.456 L 171.863 36.456 L 170.398 40.851 L 165.726 40.851 L 173.665 19.523 L 177.737 19.523 L 185.721 40.851 L 181.048 40.851 L 181.048 40.851 L 181.048 40.851 L 181.048 40.851 L 181.048 40.851 L 181.048 40.851 L 181.048 40.851 Z  M 230.779 29.718 L 230.779 30.67 L 230.779 30.67 Q 230.779 33.82 229.666 36.193 L 229.666 36.193 L 229.666 36.193 Q 228.553 38.566 226.48 39.855 L 226.48 39.855 L 226.48 39.855 Q 224.407 41.144 221.727 41.144 L 221.727 41.144 L 221.727 41.144 Q 219.075 41.144 216.995 39.869 L 216.995 39.869 L 216.995 39.869 Q 214.915 38.595 213.772 36.229 L 213.772 36.229 L 213.772 36.229 Q 212.63 33.864 212.615 30.787 L 212.615 30.787 L 212.615 29.733 L 212.615 29.733 Q 212.615 26.583 213.75 24.188 L 213.75 24.188 L 213.75 24.188 Q 214.886 21.793 216.958 20.512 L 216.958 20.512 L 216.958 20.512 Q 219.031 19.23 221.697 19.23 L 221.697 19.23 L 221.697 19.23 Q 224.363 19.23 226.436 20.512 L 226.436 20.512 L 226.436 20.512 Q 228.509 21.793 229.644 24.188 L 229.644 24.188 L 229.644 24.188 Q 230.779 26.583 230.779 29.718 L 230.779 29.718 L 230.779 29.718 L 230.779 29.718 L 230.779 29.718 L 230.779 29.718 L 230.779 29.718 L 230.779 29.718 Z " fill-rule="evenodd" fill="rgb(0,0,0)"/></g></svg>