<?xml version="1.0" encoding="UTF-8" standalone="no"?><!-- Generator: Gravit.io --><svg xmlns="http://www.w3.org/2000/svg" xmlns:xlink="http://www.w3.org/1999/xlink" style="isolation:isolate" viewBox="0 0 300 60" width="300pt" height="60pt"><defs><clipPath id="_clipPath_fvjlFOhyi83Fuxat0oflC0zpiOT88FlH"><rect width="300" height="60"/></clipPath></defs><g clip-path="url(#_clipPath_fvjlFOhyi83Fuxat0oflC0zpiOT88FlH)"><path d=" M 71.292 17.149 L 71.292 17.149 L 71.292 21.216 L 71.292 21.216 Q 69.756 22.272 67.74 22.992 L 67.74 22.992 L 67.74 22.992 Q 65.724 23.712 62.892 23.712 L 62.892 23.712 L 62.892 23.712 Q 62.22 23.712 61.548 23.664 L 61.548 23.664 L 61.548 23.664 Q 63.372 22.08 64.02 20.616 L 64.02 20.616 L 64.02 20.616 Q 64.668 19.152 64.668 17.76 L 64.668 17.76 L 64.668 17.76 Q 64.668 14.736 62.22 13.056 L 62.22 13.056 L 62.22 13.056 Q 59.772 11.376 55.692 11.376 L 55.692 11.376 L 55.692 11.376 Q 51.228 11.376 49.02 13.344 L 49.02 13.344 L 49.02 13.344 Q 46.812 15.312 46.812 18.048 L 46.812 18.048 L 46.812 18.048 Q 46.812 21.888 50.364 24.624 L 50.364 24.624 L 50.364 24.624 Q 47.772 26.256 46.524 27.888 L 46.524 27.888 L 46.524 27.888 Q 45.276 29.52 45.276 31.92 L 45.276 31.92 L 45.276 31.92 Q 45.276 34.128 46.452 35.952 L 46.452 35.952 L 46.452 35.952 Q 47.628 37.776 50.076 38.856 L 50.076 38.856 L 50.076 38.856 Q 52.524 39.936 56.364 39.936 L 56.364 39.936 L 56.364 39.936 Q 56.652 39.936 57.252 39.912 L 57.252 39.912 L 57.252 39.912 Q 57.852 39.888 58.476 39.84 L 58.476 39.84 L 58.476 39.84 Q 60.06 42.336 62.556 45.024 L 62.556 45.024 L 67.02 42.336 L 67.02 42.336 Q 66.012 41.376 65.172 40.464 L 65.172 40.464 L 65.172 40.464 Q 64.332 39.552 63.612 38.688 L 63.612 38.688 L 63.612 38.688 Q 64.668 38.112 65.22 37.224 L 65.22 37.224 L 65.22 37.224 Q 65.772 36.336 65.772 34.896 L 65.772 34.896 L 65.772 34.896 Q 65.772 33.312 64.428 32.016 L 64.428 32.016 L 64.428 32.016 Q 63.084 30.72 60.684 30.72 L 60.684 30.72 L 60.684 30.72 Q 58.764 30.72 57.804 31.608 L 57.804 31.608 L 57.804 31.608 Q 56.844 32.496 56.844 33.888 L 56.844 33.888 L 56.844 33.888 Q 56.844 34.272 56.892 34.704 L 56.892 34.704 L 56.892 34.704 Q 56.748 34.704 56.364 34.704 L 56.364 34.704 L 56.364 34.704 Q 53.868 34.704 52.812 33.888 L 52.812 33.888 L 52.812 33.888 Q 51.756 33.072 51.756 31.728 L 51.756 31.728 L 51.756 31.728 Q 51.756 30.624 52.716 29.592 L 52.716 29.592 L 52.716 29.592 Q 53.676 28.56 55.548 27.408 L 55.548 27.408 L 55.548 27.408 Q 59.292 28.8 62.796 28.8 L 62.796 28.8 L 62.796 28.8 Q 65.58 28.8 67.62 28.368 L 67.62 28.368 L 67.62 28.368 Q 69.66 27.936 71.292 27.072 L 71.292 27.072 L 71.292 41.712 L 77.724 41.712 L 77.724 17.149 L 294.5 17.149 L 294.5 11.335 L 67.5 11.335 L 67.5 17.149 L 71.292 17.149 Z  M 27.508 31.584 L 27.508 31.584 L 27.508 31.584 Q 27.508 34.992 25.276 36.912 L 25.276 36.912 L 25.276 36.912 Q 23.044 38.832 18.82 38.832 L 18.82 38.832 L 18.82 38.832 Q 15.748 38.832 13.156 37.656 L 13.156 37.656 L 13.156 37.656 Q 10.564 36.48 8.164 33.48 L 8.164 33.48 L 8.164 33.48 Q 5.764 30.48 3.46 25.008 L 3.46 25.008 L 8.98 22.896 L 8.98 22.896 Q 10.948 28.032 13.204 30.72 L 13.204 30.72 L 13.204 30.72 Q 15.46 33.408 18.34 33.408 L 18.34 33.408 L 18.34 33.408 Q 21.124 33.408 21.124 30.672 L 21.124 30.672 L 21.124 30.672 Q 21.124 28.416 19.588 26.688 L 19.588 26.688 L 19.588 26.688 Q 17.956 27.072 15.988 27.12 L 15.988 27.12 L 15.7 22.032 L 15.7 22.032 Q 18.532 21.888 19.54 21.12 L 19.54 21.12 L 19.54 21.12 Q 20.548 20.352 20.548 18.96 L 20.548 18.96 L 20.548 18.96 Q 20.548 17.616 19.588 17.136 L 19.588 17.136 L 19.588 17.136 Q 18.628 16.656 17.428 16.656 L 17.428 16.656 L 17.428 16.656 Q 15.94 16.656 14.572 17.088 L 14.572 17.088 L 14.572 17.088 Q 13.204 17.52 11.908 18.192 L 11.908 18.192 L 10.132 13.392 L 10.132 13.392 Q 11.524 12.672 13.708 12.024 L 13.708 12.024 L 13.708 12.024 Q 15.892 11.376 18.484 11.376 L 18.484 11.376 L 18.484 11.376 Q 22.564 11.376 24.748 13.488 L 24.748 13.488 L 24.748 13.488 Q 26.932 15.6 26.932 18.816 L 26.932 18.816 L 26.932 18.816 Q 26.932 22.32 24.34 24.48 L 24.34 24.48 L 24.34 24.48 Q 24.532 24.72 24.724 24.912 L 24.724 24.912 L 24.724 24.912 Q 25.348 25.008 26.068 25.056 L 26.068 25.056 L 26.068 25.056 Q 26.788 25.104 27.7 25.104 L 27.7 25.104 L 27.7 25.104 Q 29.14 25.104 30.388 24.936 L 30.388 24.936 L 30.388 24.936 Q 31.636 24.768 32.788 24.336 L 32.788 24.336 L 32.788 17.136 L 29.716 17.136 L 29.716 11.856 L 43.732 11.856 L 43.732 17.136 L 39.22 17.136 L 39.22 41.712 L 32.788 41.712 L 32.788 29.664 L 32.788 29.664 Q 31.78 30.048 30.7 30.168 L 30.7 30.168 L 30.7 30.168 Q 29.62 30.288 28.516 30.288 L 28.516 30.288 L 28.516 30.288 Q 27.988 30.288 27.412 30.24 L 27.412 30.24 L 27.412 30.24 Q 27.508 30.912 27.508 31.584 L 27.508 31.584 L 27.508 31.584 Z  M 52.956 18.672 L 52.956 18.672 L 52.956 18.672 Q 52.956 19.68 53.724 20.568 L 53.724 20.568 L 53.724 20.568 Q 54.492 21.456 55.596 22.08 L 55.596 22.08 L 55.596 22.08 Q 57.18 21.168 57.852 20.28 L 57.852 20.28 L 57.852 20.28 Q 58.524 19.392 58.524 18.528 L 58.524 18.528 L 58.524 18.528 Q 58.524 17.616 57.9 16.896 L 57.9 16.896 L 57.9 16.896 Q 57.276 16.176 55.788 16.176 L 55.788 16.176 L 55.788 16.176 Q 54.54 16.176 53.748 16.824 L 53.748 16.824 L 53.748 16.824 Q 52.956 17.472 52.956 18.672 L 52.956 18.672 L 52.956 18.672 Z  M 90.484 42.211 L 85.859 42.211 L 85.859 19.305 L 101.563 19.305 L 101.563 23.18 L 90.484 23.18 L 90.484 28.602 L 100.047 28.602 L 100.047 32.477 L 90.484 32.477 L 90.484 42.211 L 90.484 42.211 L 90.484 42.211 Z  M 109.203 30.742 L 109.203 30.742 L 109.203 30.742 Q 109.203 34.633 111 36.641 L 111 36.641 L 111 36.641 Q 112.797 38.648 115.563 38.648 L 115.563 38.648 L 115.563 38.648 Q 118.328 38.648 120.102 36.656 L 120.102 36.656 L 120.102 36.656 Q 121.875 34.664 121.875 30.68 L 121.875 30.68 L 121.875 30.68 Q 121.875 26.742 120.148 24.805 L 120.148 24.805 L 120.148 24.805 Q 118.422 22.867 115.563 22.867 L 115.563 22.867 L 115.563 22.867 Q 112.703 22.867 110.953 24.828 L 110.953 24.828 L 110.953 24.828 Q 109.203 26.789 109.203 30.742 L 109.203 30.742 L 109.203 30.742 Z  M 130.234 31.523 L 130.234 19.305 L 134.859 19.305 L 134.859 31.711 L 134.859 31.711 Q 134.859 34.664 135.031 35.539 L 135.031 35.539 L 135.031 35.539 Q 135.328 36.945 136.445 37.797 L 136.445 37.797 L 136.445 37.797 Q 137.563 38.648 139.5 38.648 L 139.5 38.648 L 139.5 38.648 Q 141.469 38.648 142.469 37.844 L 142.469 37.844 L 142.469 37.844 Q 143.469 37.039 143.672 35.867 L 143.672 35.867 L 143.672 35.867 Q 143.875 34.695 143.875 31.977 L 143.875 31.977 L 143.875 19.305 L 148.5 19.305 L 148.5 31.336 L 148.5 31.336 Q 148.5 35.461 148.125 37.164 L 148.125 37.164 L 148.125 37.164 Q 147.75 38.867 146.742 40.039 L 146.742 40.039 L 146.742 40.039 Q 145.734 41.211 144.047 41.906 L 144.047 41.906 L 144.047 41.906 Q 142.359 42.602 139.641 42.602 L 139.641 42.602 L 139.641 42.602 Q 136.359 42.602 134.664 41.844 L 134.664 41.844 L 134.664 41.844 Q 132.969 41.086 131.984 39.875 L 131.984 39.875 L 131.984 39.875 Q 131 38.664 130.688 37.336 L 130.688 37.336 L 130.688 37.336 Q 130.234 35.367 130.234 31.523 L 130.234 31.523 L 130.234 31.523 L 130.234 31.523 Z  M 157.719 42.211 L 153.422 42.211 L 153.422 19.305 L 157.922 19.305 L 167.297 34.602 L 167.297 19.305 L 171.594 19.305 L 171.594 42.211 L 166.953 42.211 L 157.719 27.273 L 157.719 42.211 L 157.719 42.211 L 157.719 42.211 Z  M 183.172 23.18 L 181.094 23.18 L 181.094 38.352 L 184.547 38.352 L 184.547 38.352 Q 186.484 38.352 187.344 38.133 L 187.344 38.133 L 187.344 38.133 Q 188.469 37.852 189.211 37.18 L 189.211 37.18 L 189.211 37.18 Q 189.953 36.508 190.422 34.969 L 190.422 34.969 L 190.422 34.969 Q 190.891 33.43 190.891 30.773 L 190.891 30.773 L 190.891 30.773 Q 190.891 28.117 190.422 26.695 L 190.422 26.695 L 190.422 26.695 Q 189.953 25.273 189.109 24.477 L 189.109 24.477 L 189.109 24.477 Q 188.266 23.68 186.969 23.398 L 186.969 23.398 L 186.969 23.398 Q 186 23.18 183.172 23.18 L 183.172 23.18 L 183.172 23.18 L 183.172 23.18 Z  M 205.484 33.148 L 211.734 33.148 L 208.578 24.648 L 205.484 33.148 L 205.484 33.148 L 205.484 33.148 Z  M 232.484 42.211 L 227.859 42.211 L 227.859 23.18 L 221.063 23.18 L 221.063 19.305 L 239.266 19.305 L 239.266 23.18 L 232.484 23.18 L 232.484 42.211 L 232.484 42.211 L 232.484 42.211 Z  M 246.734 42.211 L 242.109 42.211 L 242.109 19.305 L 246.734 19.305 L 246.734 42.211 L 246.734 42.211 L 246.734 42.211 Z  M 254.969 30.742 L 254.969 30.742 L 254.969 30.742 Q 254.969 34.633 256.766 36.641 L 256.766 36.641 L 256.766 36.641 Q 258.563 38.648 261.328 38.648 L 261.328 38.648 L 261.328 38.648 Q 264.094 38.648 265.867 36.656 L 265.867 36.656 L 265.867 36.656 Q 267.641 34.664 267.641 30.68 L 267.641 30.68 L 267.641 30.68 Q 267.641 26.742 265.914 24.805 L 265.914 24.805 L 265.914 24.805 Q 264.188 22.867 261.328 22.867 L 261.328 22.867 L 261.328 22.867 Q 258.469 22.867 256.719 24.828 L 256.719 24.828 L 256.719 24.828 Q 254.969 26.789 254.969 30.742 L 254.969 30.742 L 254.969 30.742 Z  M 280.375 42.211 L 276.078 42.211 L 276.078 19.305 L 280.578 19.305 L 289.953 34.602 L 289.953 19.305 L 294.25 19.305 L 294.25 42.211 L 289.609 42.211 L 280.375 27.273 L 280.375 42.211 L 280.375 42.211 L 280.375 42.211 Z  M 104.438 30.898 L 104.438 30.898 L 104.438 30.898 Q 104.438 27.398 105.484 25.023 L 105.484 25.023 L 105.484 25.023 Q 106.266 23.273 107.617 21.883 L 107.617 21.883 L 107.617 21.883 Q 108.969 20.492 110.578 19.82 L 110.578 19.82 L 110.578 19.82 Q 112.719 18.914 115.516 18.914 L 115.516 18.914 L 115.516 18.914 Q 120.578 18.914 123.617 22.055 L 123.617 22.055 L 123.617 22.055 Q 126.656 25.195 126.656 30.789 L 126.656 30.789 L 126.656 30.789 Q 126.656 36.336 123.641 39.469 L 123.641 39.469 L 123.641 39.469 Q 120.625 42.602 115.578 42.602 L 115.578 42.602 L 115.578 42.602 Q 110.469 42.602 107.453 39.484 L 107.453 39.484 L 107.453 39.484 Q 104.438 36.367 104.438 30.898 L 104.438 30.898 L 104.438 30.898 Z  M 176.469 42.211 L 176.469 19.305 L 184.922 19.305 L 184.922 19.305 Q 187.781 19.305 189.281 19.742 L 189.281 19.742 L 189.281 19.742 Q 191.297 20.336 192.734 21.852 L 192.734 21.852 L 192.734 21.852 Q 194.172 23.367 194.922 25.563 L 194.922 25.563 L 194.922 25.563 Q 195.672 27.758 195.672 30.977 L 195.672 30.977 L 195.672 30.977 Q 195.672 33.805 194.969 35.852 L 194.969 35.852 L 194.969 35.852 Q 194.109 38.352 192.516 39.898 L 192.516 39.898 L 192.516 39.898 Q 191.313 41.07 189.266 41.727 L 189.266 41.727 L 189.266 41.727 Q 187.734 42.211 185.172 42.211 L 185.172 42.211 L 176.469 42.211 L 176.469 42.211 L 176.469 42.211 Z  M 211.078 19.305 L 220.25 42.211 L 215.219 42.211 L 213.219 37.008 L 204.063 37.008 L 202.172 42.211 L 197.266 42.211 L 206.188 19.305 L 211.078 19.305 L 211.078 19.305 L 211.078 19.305 Z  M 250.203 30.898 L 250.203 30.898 L 250.203 30.898 Q 250.203 27.398 251.25 25.023 L 251.25 25.023 L 251.25 25.023 Q 252.031 23.273 253.383 21.883 L 253.383 21.883 L 253.383 21.883 Q 254.734 20.492 256.344 19.82 L 256.344 19.82 L 256.344 19.82 Q 258.484 18.914 261.281 18.914 L 261.281 18.914 L 261.281 18.914 Q 266.344 18.914 269.383 22.055 L 269.383 22.055 L 269.383 22.055 Q 272.422 25.195 272.422 30.789 L 272.422 30.789 L 272.422 30.789 Q 272.422 36.336 269.406 39.469 L 269.406 39.469 L 269.406 39.469 Q 266.391 42.602 261.344 42.602 L 261.344 42.602 L 261.344 42.602 Q 256.234 42.602 253.219 39.484 L 253.219 39.484 L 253.219 39.484 Q 250.203 36.367 250.203 30.898 L 250.203 30.898 L 250.203 30.898 Z " fill-rule="evenodd" fill="rgb(63,63,70)"/></g></svg>