<?xml version="1.0" encoding="UTF-8" standalone="no"?><!-- Generator: Gravit.io --><svg xmlns="http://www.w3.org/2000/svg" xmlns:xlink="http://www.w3.org/1999/xlink" style="isolation:isolate" viewBox="0 0 1000 160" width="1000pt" height="160pt"><defs><clipPath id="_clipPath_5OynhGlhvb7A9TkgIYYMuIjsF024c1c5"><rect width="1000" height="160"/></clipPath></defs><g clip-path="url(#_clipPath_5OynhGlhvb7A9TkgIYYMuIjsF024c1c5)"><path d=" M 87.029 89.133 L 73.285 89.133 Q 72.019 98.541 64.655 104.63 L 64.655 104.63 L 64.655 104.63 Q 55.76 111.983 41.112 111.983 L 41.112 111.983 L 41.112 111.983 Q 27.41 111.983 18.705 104.753 L 18.705 104.753 L 18.705 104.753 Q 10 97.526 10 85.647 L 10 85.647 L 28.164 85.647 L 28.164 85.647 Q 28.164 90.799 32.031 94.069 L 32.031 94.069 L 32.031 94.069 Q 35.896 97.338 41.553 97.338 L 41.553 97.338 L 41.553 97.338 Q 48.028 97.338 51.704 93.912 L 51.704 93.912 L 51.704 93.912 Q 55.381 90.485 55.381 84.828 L 55.381 84.828 L 55.381 84.828 Q 55.381 71.126 40.296 71.126 L 40.296 71.126 L 30.68 71.126 L 30.68 71.126 L 30.68 71.126 L 30.68 56.919 L 40.358 56.919 L 40.358 56.919 Q 47.273 56.919 50.605 53.464 L 50.605 53.464 L 50.605 53.464 Q 53.937 50.006 53.937 44.285 L 53.937 44.285 L 53.937 44.285 Q 53.937 38.754 50.636 35.673 L 50.636 35.673 L 50.636 35.673 Q 47.335 32.593 41.553 32.593 L 41.553 32.593 L 41.553 32.593 Q 36.336 32.593 32.817 35.454 L 32.817 35.454 L 32.817 35.454 Q 29.297 38.314 29.297 42.902 L 29.297 42.902 L 11.13 42.902 L 11.13 42.902 Q 11.13 35.737 14.995 30.047 L 14.995 30.047 L 14.995 30.047 Q 18.862 24.359 25.808 21.154 L 25.808 21.154 L 25.808 21.154 Q 32.752 17.949 41.112 17.949 L 41.112 17.949 L 41.112 17.949 Q 55.633 17.949 63.867 24.892 L 63.867 24.892 L 63.867 24.892 Q 72.104 31.839 72.104 44.033 L 72.104 44.033 L 72.104 44.033 Q 72.104 50.32 68.267 55.6 L 68.267 55.6 L 68.267 55.6 Q 64.434 60.879 58.211 63.708 L 58.211 63.708 L 58.211 63.708 Q 65.942 66.473 69.745 72.006 L 69.745 72.006 L 69.745 72.006 Q 71.117 74.002 71.995 76.26 L 71.995 76.26 L 71.995 76.26 L 71.995 76.26 L 71.995 76.26 L 87.029 76.26 L 87.029 41.502 L 87.029 41.502 L 87.029 23.479 L 87.029 23.479 L 87.029 23.479 L 87.029 23.479 L 115.252 23.479 L 115.252 41.502 L 104.954 41.502 L 104.954 110.969 L 87.029 110.969 L 87.029 89.133 L 87.029 89.133 L 87.029 89.133 Z  M 140.999 37.511 L 140.999 37.511 L 140.999 37.511 Q 137.395 37.511 135.335 39.635 L 135.335 39.635 L 135.335 39.635 Q 133.275 41.759 133.275 45.235 L 133.275 45.235 L 133.275 45.235 Q 133.275 52.701 141.9 55.019 L 141.9 55.019 L 141.9 55.019 Q 148.466 51.543 148.466 44.462 L 148.466 44.462 L 148.466 44.462 Q 148.466 41.373 146.406 39.442 L 146.406 39.442 L 146.406 39.442 Q 144.346 37.511 140.999 37.511 L 140.999 37.511 L 140.999 37.511 L 140.999 37.511 L 140.999 37.511 L 140.999 37.511 L 140.999 37.511 L 140.999 37.511 L 140.999 37.511 L 140.999 37.511 Z  M 179.877 37.261 L 179.877 56.435 L 179.877 56.435 L 179.877 56.435 L 179.877 56.435 L 179.877 56.435 L 179.877 56.435 L 159.408 56.435 L 159.408 56.435 Q 165.458 50.77 165.458 42.789 L 165.458 42.789 L 165.458 42.789 Q 165.458 33.263 158.764 27.985 L 158.764 27.985 L 158.764 27.985 Q 152.07 22.707 140.613 22.707 L 140.613 22.707 L 140.613 22.707 Q 129.413 22.707 122.783 29.079 L 122.783 29.079 L 122.783 29.079 Q 116.154 35.451 116.154 44.72 L 116.154 44.72 L 116.154 44.72 Q 116.154 55.276 123.491 61.713 L 123.491 61.713 L 123.491 61.713 Q 107.4 69.051 107.4 83.726 L 107.4 83.726 L 107.4 83.726 Q 107.4 94.025 114.223 100.14 L 114.223 100.14 L 114.223 100.14 Q 121.045 106.255 132.245 106.255 L 132.245 106.255 L 132.245 106.255 Q 137.909 106.255 142.801 104.195 L 142.801 104.195 L 142.801 104.195 Q 147.693 102.135 149.882 99.045 L 149.882 99.045 L 149.882 110.374 L 167.904 110.374 L 167.904 78.319 L 150.139 78.319 L 150.139 78.319 Q 148.079 91.193 135.978 91.193 L 135.978 91.193 L 135.978 91.193 Q 131.215 91.193 128.512 88.811 L 128.512 88.811 L 128.512 88.811 Q 125.809 86.43 125.809 82.31 L 125.809 82.31 L 125.809 82.31 Q 125.809 74.071 138.167 68.664 L 138.167 68.664 L 138.167 68.664 Q 144.732 70.209 152.328 70.209 L 152.328 70.209 L 179.877 70.209 L 179.877 110.374 L 198.157 110.374 L 198.157 69.823 L 198.157 56.95 L 198.157 56.95 L 198.157 41.502 L 198.157 41.502 L 198.157 41.502 L 198.157 23.994 L 192.41 23.82 L 192.41 23.111 L 172.443 23.111 L 172.443 37.261 L 179.877 37.261 L 179.877 37.261 Z  M 213.988 112.16 L 213.988 24.074 L 266.951 24.074 L 266.951 37.839 L 228.803 37.839 L 228.803 64.382 L 262.198 64.382 L 262.198 78.148 L 228.803 78.148 L 228.803 112.16 L 213.988 112.16 L 213.988 112.16 Z  M 314.605 100.432 L 314.605 100.432 L 314.605 100.432 Q 320.654 100.432 324.636 99.012 L 324.636 99.012 L 324.636 99.012 Q 328.617 97.592 330.963 93.981 L 330.963 93.981 L 330.963 93.981 Q 333.309 90.37 334.265 84.166 L 334.265 84.166 L 334.265 84.166 Q 335.222 77.962 335.222 68.395 L 335.222 68.395 L 335.222 68.395 Q 335.222 58.765 334.265 52.531 L 334.265 52.531 L 334.265 52.531 Q 333.309 46.296 330.963 42.623 L 330.963 42.623 L 330.963 42.623 Q 328.617 38.95 324.636 37.5 L 324.636 37.5 L 324.636 37.5 Q 320.654 36.049 314.605 36.049 L 314.605 36.049 L 314.605 36.049 Q 308.556 36.049 304.543 37.5 L 304.543 37.5 L 304.543 37.5 Q 300.531 38.95 298.185 42.623 L 298.185 42.623 L 298.185 42.623 Q 295.84 46.296 294.883 52.531 L 294.883 52.531 L 294.883 52.531 Q 293.926 58.765 293.926 68.395 L 293.926 68.395 L 293.926 68.395 Q 293.926 77.962 294.883 84.166 L 294.883 84.166 L 294.883 84.166 Q 295.84 90.37 298.185 93.981 L 298.185 93.981 L 298.185 93.981 Q 300.531 97.592 304.543 99.012 L 304.543 99.012 L 304.543 99.012 Q 308.556 100.432 314.605 100.432 L 314.605 100.432 Z  M 368.679 84.074 L 368.679 24.074 L 383.37 24.074 L 383.37 82.962 L 383.37 82.962 Q 383.37 88.209 384.296 91.604 L 384.296 91.604 L 384.296 91.604 Q 385.222 94.999 387.352 96.944 L 387.352 96.944 L 387.352 96.944 Q 389.481 98.888 392.876 99.66 L 392.876 99.66 L 392.876 99.66 Q 396.271 100.432 401.21 100.432 L 401.21 100.432 L 401.21 100.432 Q 405.654 100.432 408.956 99.66 L 408.956 99.66 L 408.956 99.66 Q 412.259 98.888 414.481 96.944 L 414.481 96.944 L 414.481 96.944 Q 416.703 94.999 417.784 91.604 L 417.784 91.604 L 417.784 91.604 Q 418.864 88.209 418.864 82.962 L 418.864 82.962 L 418.864 24.074 L 433.555 24.074 L 433.555 83.827 L 433.555 83.827 Q 433.555 91.543 431.796 97.222 L 431.796 97.222 L 431.796 97.222 Q 430.037 102.901 426.148 106.635 L 426.148 106.635 L 426.148 106.635 Q 422.259 110.37 416.117 112.222 L 416.117 112.222 L 416.117 112.222 Q 409.975 114.073 401.21 114.073 L 401.21 114.073 L 401.21 114.073 Q 392.444 114.073 386.271 112.252 L 386.271 112.252 L 386.271 112.252 Q 380.099 110.431 376.179 106.728 L 376.179 106.728 L 376.179 106.728 Q 372.259 103.024 370.469 97.376 L 370.469 97.376 L 370.469 97.376 Q 368.679 91.728 368.679 84.074 L 368.679 84.074 L 368.679 84.074 Z  M 455.715 112.16 L 455.715 24.074 L 480.283 24.074 L 512.382 98.394 L 512.691 98.394 L 512.691 98.394 Q 512.629 96.172 512.567 93.888 L 512.567 93.888 L 512.567 93.888 Q 512.505 91.913 512.505 89.629 L 512.505 89.629 L 512.505 89.629 Q 512.505 87.345 512.505 85.246 L 512.505 85.246 L 512.505 24.074 L 527.197 24.074 L 527.197 112.16 L 503.158 112.16 L 475.968 50.185 L 475.968 50.185 Q 474.856 47.592 473.867 45.37 L 473.867 45.37 L 473.867 45.37 Q 472.879 43.148 472.199 41.481 L 472.199 41.481 L 472.199 41.481 Q 471.334 39.506 470.654 37.839 L 470.654 37.839 L 470.407 37.839 L 470.407 112.16 L 455.715 112.16 L 455.715 112.16 Z  M 564.419 98.394 L 577.196 98.394 L 577.196 98.394 Q 580.344 98.394 583.307 98.24 L 583.307 98.24 L 583.307 98.24 Q 586.27 98.086 588.832 97.16 L 588.832 97.16 L 588.832 97.16 Q 591.394 96.234 593.523 94.351 L 593.523 94.351 L 593.523 94.351 Q 595.653 92.469 597.165 89.012 L 597.165 89.012 L 597.165 89.012 Q 598.678 85.555 599.511 80.277 L 599.511 80.277 L 599.511 80.277 Q 600.344 75 600.344 67.284 L 600.344 67.284 L 600.344 67.284 Q 600.344 60.123 599.542 55.154 L 599.542 55.154 L 599.542 55.154 Q 598.739 50.185 597.258 46.913 L 597.258 46.913 L 597.258 46.913 Q 595.776 43.642 593.709 41.821 L 593.709 41.821 L 593.709 41.821 Q 591.641 40 589.048 39.105 L 589.048 39.105 L 589.048 39.105 Q 586.455 38.21 583.462 38.024 L 583.462 38.024 L 583.462 38.024 Q 580.468 37.839 577.196 37.839 L 577.196 37.839 L 564.419 37.839 L 564.419 98.394 L 564.419 98.394 Z  M 651.023 75 L 672.998 75 L 662.134 37.716 L 661.887 37.716 L 651.023 75 L 651.023 75 Z  M 728.862 112.16 L 728.862 37.716 L 702.443 37.716 L 702.443 24.074 L 770.22 24.074 L 770.22 37.716 L 743.553 37.716 L 743.553 112.16 L 728.862 112.16 L 728.862 112.16 Z  M 782.195 112.16 L 782.195 24.074 L 797.01 24.074 L 797.01 112.16 L 782.195 112.16 L 782.195 112.16 Z  M 851.578 100.432 L 851.578 100.432 L 851.578 100.432 Q 857.627 100.432 861.608 99.012 L 861.608 99.012 L 861.608 99.012 Q 865.59 97.592 867.936 93.981 L 867.936 93.981 L 867.936 93.981 Q 870.281 90.37 871.238 84.166 L 871.238 84.166 L 871.238 84.166 Q 872.195 77.962 872.195 68.395 L 872.195 68.395 L 872.195 68.395 Q 872.195 58.765 871.238 52.531 L 871.238 52.531 L 871.238 52.531 Q 870.281 46.296 867.936 42.623 L 867.936 42.623 L 867.936 42.623 Q 865.59 38.95 861.608 37.5 L 861.608 37.5 L 861.608 37.5 Q 857.627 36.049 851.578 36.049 L 851.578 36.049 L 851.578 36.049 Q 845.528 36.049 841.516 37.5 L 841.516 37.5 L 841.516 37.5 Q 837.504 38.95 835.158 42.623 L 835.158 42.623 L 835.158 42.623 Q 832.812 46.296 831.855 52.531 L 831.855 52.531 L 831.855 52.531 Q 830.899 58.765 830.899 68.395 L 830.899 68.395 L 830.899 68.395 Q 830.899 77.962 831.855 84.166 L 831.855 84.166 L 831.855 84.166 Q 832.812 90.37 835.158 93.981 L 835.158 93.981 L 835.158 93.981 Q 837.504 97.592 841.516 99.012 L 841.516 99.012 L 841.516 99.012 Q 845.528 100.432 851.578 100.432 L 851.578 100.432 Z  M 905.96 112.16 L 905.96 24.074 L 930.528 24.074 L 962.626 98.394 L 962.936 98.394 L 962.936 98.394 Q 962.874 96.172 962.812 93.888 L 962.812 93.888 L 962.812 93.888 Q 962.75 91.913 962.75 89.629 L 962.75 89.629 L 962.75 89.629 Q 962.75 87.345 962.75 85.246 L 962.75 85.246 L 962.75 24.074 L 977.441 24.074 L 977.441 112.16 L 953.403 112.16 L 926.213 50.185 L 926.213 50.185 Q 925.101 47.592 924.112 45.37 L 924.112 45.37 L 924.112 45.37 Q 923.123 43.148 922.443 41.481 L 922.443 41.481 L 922.443 41.481 Q 921.578 39.506 920.898 37.839 L 920.898 37.839 L 920.651 37.839 L 920.651 112.16 L 905.96 112.16 L 905.96 112.16 Z  M 314.605 114.073 L 314.605 114.073 L 314.605 114.073 Q 308.926 114.073 304.05 113.271 L 304.05 113.271 L 304.05 113.271 Q 299.173 112.468 295.161 110.462 L 295.161 110.462 L 295.161 110.462 Q 291.148 108.456 288.031 105.123 L 288.031 105.123 L 288.031 105.123 Q 284.914 101.79 282.753 96.697 L 282.753 96.697 L 282.753 96.697 Q 280.593 91.604 279.482 84.629 L 279.482 84.629 L 279.482 84.629 Q 278.371 77.654 278.371 68.395 L 278.371 68.395 L 278.371 68.395 Q 278.371 54.506 280.84 45.555 L 280.84 45.555 L 280.84 45.555 Q 283.309 36.605 288 31.45 L 288 31.45 L 288 31.45 Q 292.692 26.296 299.42 24.29 L 299.42 24.29 L 299.42 24.29 Q 306.148 22.284 314.605 22.284 L 314.605 22.284 L 314.605 22.284 Q 320.222 22.284 325.099 23.148 L 325.099 23.148 L 325.099 23.148 Q 329.975 24.012 333.988 26.049 L 333.988 26.049 L 333.988 26.049 Q 338 28.086 341.086 31.512 L 341.086 31.512 L 341.086 31.512 Q 344.173 34.938 346.302 40.061 L 346.302 40.061 L 346.302 40.061 Q 348.432 45.185 349.543 52.191 L 349.543 52.191 L 349.543 52.191 Q 350.654 59.197 350.654 68.395 L 350.654 68.395 L 350.654 68.395 Q 350.654 77.592 349.543 84.567 L 349.543 84.567 L 349.543 84.567 Q 348.432 91.543 346.302 96.635 L 346.302 96.635 L 346.302 96.635 Q 344.173 101.728 341.086 105.092 L 341.086 105.092 L 341.086 105.092 Q 338 108.456 333.988 110.431 L 333.988 110.431 L 333.988 110.431 Q 329.975 112.407 325.099 113.24 L 325.099 113.24 L 325.099 113.24 Q 320.222 114.073 314.605 114.073 L 314.605 114.073 Z  M 549.604 112.16 L 549.604 24.074 L 581.209 24.074 L 581.209 24.074 Q 586.085 24.074 590.56 24.753 L 590.56 24.753 L 590.56 24.753 Q 595.036 25.432 598.863 27.16 L 598.863 27.16 L 598.863 27.16 Q 602.69 28.889 605.838 31.975 L 605.838 31.975 L 605.838 31.975 Q 608.986 35.061 611.208 39.876 L 611.208 39.876 L 611.208 39.876 Q 613.431 44.691 614.634 51.481 L 614.634 51.481 L 614.634 51.481 Q 615.838 58.271 615.838 67.407 L 615.838 67.407 L 615.838 67.407 Q 615.838 76.851 614.727 83.858 L 614.727 83.858 L 614.727 83.858 Q 613.616 90.864 611.517 95.833 L 611.517 95.833 L 611.517 95.833 Q 609.418 100.802 606.394 103.981 L 606.394 103.981 L 606.394 103.981 Q 603.369 107.16 599.511 108.981 L 599.511 108.981 L 599.511 108.981 Q 595.653 110.802 591.054 111.481 L 591.054 111.481 L 591.054 111.481 Q 586.455 112.16 581.209 112.16 L 581.209 112.16 L 549.604 112.16 L 549.604 112.16 Z  M 623.801 112.16 L 652.381 24.074 L 672.011 24.074 L 700.838 112.16 L 684.48 112.16 L 677.072 88.271 L 647.072 88.271 L 639.974 112.16 L 623.801 112.16 L 623.801 112.16 Z  M 851.578 114.073 L 851.578 114.073 L 851.578 114.073 Q 845.899 114.073 841.022 113.271 L 841.022 113.271 L 841.022 113.271 Q 836.146 112.468 832.133 110.462 L 832.133 110.462 L 832.133 110.462 Q 828.121 108.456 825.004 105.123 L 825.004 105.123 L 825.004 105.123 Q 821.886 101.79 819.726 96.697 L 819.726 96.697 L 819.726 96.697 Q 817.565 91.604 816.454 84.629 L 816.454 84.629 L 816.454 84.629 Q 815.343 77.654 815.343 68.395 L 815.343 68.395 L 815.343 68.395 Q 815.343 54.506 817.812 45.555 L 817.812 45.555 L 817.812 45.555 Q 820.281 36.605 824.973 31.45 L 824.973 31.45 L 824.973 31.45 Q 829.664 26.296 836.392 24.29 L 836.392 24.29 L 836.392 24.29 Q 843.121 22.284 851.578 22.284 L 851.578 22.284 L 851.578 22.284 Q 857.195 22.284 862.071 23.148 L 862.071 23.148 L 862.071 23.148 Q 866.948 24.012 870.96 26.049 L 870.96 26.049 L 870.96 26.049 Q 874.973 28.086 878.059 31.512 L 878.059 31.512 L 878.059 31.512 Q 881.145 34.938 883.275 40.061 L 883.275 40.061 L 883.275 40.061 Q 885.405 45.185 886.516 52.191 L 886.516 52.191 L 886.516 52.191 Q 887.627 59.197 887.627 68.395 L 887.627 68.395 L 887.627 68.395 Q 887.627 77.592 886.516 84.567 L 886.516 84.567 L 886.516 84.567 Q 885.405 91.543 883.275 96.635 L 883.275 96.635 L 883.275 96.635 Q 881.145 101.728 878.059 105.092 L 878.059 105.092 L 878.059 105.092 Q 874.973 108.456 870.96 110.431 L 870.96 110.431 L 870.96 110.431 Q 866.948 112.407 862.071 113.24 L 862.071 113.24 L 862.071 113.24 Q 857.195 114.073 851.578 114.073 L 851.578 114.073 Z " fill-rule="evenodd" fill="rgb(0,0,0)"/></g></svg>