<?xml version="1.0" encoding="UTF-8" standalone="no"?><!-- Generator: Gravit.io --><svg xmlns="http://www.w3.org/2000/svg" xmlns:xlink="http://www.w3.org/1999/xlink" style="isolation:isolate" viewBox="0 0 1000 300" width="1000pt" height="300pt"><defs><clipPath id="_clipPath_ax7bFVaDXlPGKTWzqnsb5Zh29ebgqr0q"><rect width="1000" height="300"/></clipPath></defs><g clip-path="url(#_clipPath_ax7bFVaDXlPGKTWzqnsb5Zh29ebgqr0q)"><g><g clip-path="url(#_clipPath_7ZPFNUin3Ob6dgIGy638px7DggZg197I)"><text transform="matrix(1,0,0,1,39,284.5)" style="font-family:'Bakbak One';font-weight:400;font-size:230px;font-style:normal;fill:#000000;stroke:none;">B</text></g><defs><clipPath id="_clipPath_7ZPFNUin3Ob6dgIGy638px7DggZg197I"><rect x="0" y="0" width="148" height="243" transform="matrix(1,0,0,1,39,43)"/></clipPath></defs><g clip-path="url(#_clipPath_dVgsK98XBjbdwrVcfuZbVhNTy4EyS7Q9)"><text transform="matrix(1,0,0,1,695.19,284.5)" style="font-family:'Bakbak One';font-weight:400;font-size:230px;font-style:normal;fill:#000000;stroke:none;">ST</text></g><defs><clipPath id="_clipPath_dVgsK98XBjbdwrVcfuZbVhNTy4EyS7Q9"><rect x="0" y="0" width="270" height="243" transform="matrix(1,0,0,1,691,43)"/></clipPath></defs><path d="M 267.75 143.5 L 610.25 143.5 C 649.574 143.5 681.5 175.426 681.5 214.75 L 681.5 214.75 C 681.5 254.074 649.574 286 610.25 286 L 267.75 286 C 228.426 286 196.5 254.074 196.5 214.75 L 196.5 214.75 C 196.5 175.426 228.426 143.5 267.75 143.5 Z" style="fill:none;stroke:#000000;stroke-width:66;stroke-linecap:square;stroke-miterlimit:2;"/></g></g></svg>