<?xml version="1.0" encoding="UTF-8" standalone="no"?><!-- Generator: Gravit.io --><svg xmlns="http://www.w3.org/2000/svg" xmlns:xlink="http://www.w3.org/1999/xlink" style="isolation:isolate" viewBox="0 0 1000 300" width="1000pt" height="300pt"><defs><clipPath id="_clipPath_Urs7RENHn1OeUk6D0BK6Nwz0j4BXliIS"><rect width="1000" height="300"/></clipPath></defs><g clip-path="url(#_clipPath_Urs7RENHn1OeUk6D0BK6Nwz0j4BXliIS)"><mask id="_mask_tZzT7hh3ilf7iUcgVimS4BVTbUUgpLZn"><path d=" M 267.5 171 L 611.5 171 C 636.06 171 656 190.94 656 215.5 L 656 215.5 C 656 240.06 636.06 260 611.5 260 L 267.5 260 C 242.94 260 223 240.06 223 215.5 L 223 215.5 C 223 190.94 242.94 171 267.5 171 L 267.5 171 L 267.5 171 Z  M 112.14 165.82 L 112.14 165.82 L 89.6 165.82 L 89.6 194.34 L 112.14 194.34 L 112.14 194.34 Q 123.41 194.34 128.47 191.465 L 128.47 191.465 L 128.47 191.465 Q 133.53 188.59 133.53 180.08 L 133.53 180.08 L 133.53 180.08 Q 133.53 171.8 128.47 168.81 L 128.47 168.81 L 128.47 168.81 Q 123.41 165.82 112.14 165.82 L 112.14 165.82 L 112.14 165.82 Z  M 116.74 224.47 L 116.74 224.47 L 89.6 224.47 L 89.6 253.68 L 116.74 253.68 L 116.74 253.68 Q 128.01 253.68 133.07 250.575 L 133.07 250.575 L 133.07 250.575 Q 138.13 247.47 138.13 238.96 L 138.13 238.96 L 138.13 238.96 Q 138.13 230.22 133.07 227.345 L 133.07 227.345 L 133.07 227.345 Q 128.01 224.47 116.74 224.47 L 116.74 224.47 L 116.74 224.47 Z  M 267.75 143.5 L 610.25 143.5 C 649.574 143.5 681.5 175.426 681.5 214.75 L 681.5 214.75 C 681.5 254.074 649.574 286 610.25 286 L 267.75 286 C 228.426 286 196.5 254.074 196.5 214.75 L 196.5 214.75 C 196.5 175.426 228.426 143.5 267.75 143.5 L 267.75 143.5 L 267.75 143.5 Z  M 176.08 245.17 L 176.08 245.17 L 176.08 245.17 Q 176.08 263.57 164.695 273 L 164.695 273 L 164.695 273 Q 153.31 282.43 124.56 282.43 L 124.56 282.43 L 52.8 282.43 L 52.8 136.84 L 61.77 136.84 L 61.77 136.84 L 122.26 136.84 L 122.26 136.84 Q 141.35 136.84 152.045 140.865 L 152.045 140.865 L 152.045 140.865 Q 162.74 144.89 167.11 152.71 L 167.11 152.71 L 167.11 152.71 Q 171.48 160.53 171.48 172.26 L 171.48 172.26 L 171.48 172.26 Q 171.48 188.36 163.775 197.215 L 163.775 197.215 L 163.775 197.215 Q 156.07 206.07 134.91 207.91 L 134.91 207.91 L 134.91 208.6 L 134.91 208.6 Q 150.55 209.75 159.52 213.775 L 159.52 213.775 L 159.52 213.775 Q 168.49 217.8 172.285 225.39 L 172.285 225.39 L 172.285 225.39 Q 176.08 232.98 176.08 245.17 L 176.08 245.17 L 176.08 245.17 Z  M 704.39 245.63 L 705.31 244.94 L 705.31 244.94 Q 715.43 248.39 727.505 250.345 L 727.505 250.345 L 727.505 250.345 Q 739.58 252.3 751.54 252.3 L 751.54 252.3 L 751.54 252.3 Q 767.87 252.3 775.805 250.805 L 775.805 250.805 L 775.805 250.805 Q 783.74 249.31 786.27 246.09 L 786.27 246.09 L 786.27 246.09 Q 788.8 242.87 788.8 237.81 L 788.8 237.81 L 788.8 237.81 Q 788.8 233.44 786.96 230.91 L 786.96 230.91 L 786.96 230.91 Q 785.12 228.38 779.83 226.885 L 779.83 226.885 L 779.83 226.885 Q 774.54 225.39 764.19 224.47 L 764.19 224.47 L 749.01 223.09 L 749.01 223.09 Q 731.99 221.48 722.215 215.96 L 722.215 215.96 L 722.215 215.96 Q 712.44 210.44 708.415 201.125 L 708.415 201.125 L 708.415 201.125 Q 704.39 191.81 704.39 178.7 L 704.39 178.7 L 704.39 178.7 Q 704.39 163.06 710.715 153.4 L 710.715 153.4 L 710.715 153.4 Q 717.04 143.74 731.3 139.255 L 731.3 139.255 L 731.3 139.255 Q 745.56 134.77 769.25 134.77 L 769.25 134.77 L 769.25 134.77 Q 800.07 134.77 820.08 142.82 L 820.08 142.82 L 819.39 174.1 L 818.7 175.02 L 818.7 175.02 Q 795.93 166.97 771.09 166.97 L 771.09 166.97 L 771.09 166.97 Q 759.13 166.97 752.69 168.235 L 752.69 168.235 L 752.69 168.235 Q 746.25 169.5 743.72 172.26 L 743.72 172.26 L 743.72 172.26 Q 741.19 175.02 741.19 180.08 L 741.19 180.08 L 741.19 180.08 Q 741.19 185.14 742.915 187.67 L 742.915 187.67 L 742.915 187.67 Q 744.64 190.2 749.93 191.465 L 749.93 191.465 L 749.93 191.465 Q 755.22 192.73 765.34 193.88 L 765.34 193.88 L 779.83 195.49 L 779.83 195.49 Q 798.23 197.56 808.12 202.85 L 808.12 202.85 L 808.12 202.85 Q 818.01 208.14 821.805 216.995 L 821.805 216.995 L 821.805 216.995 Q 825.6 225.85 825.6 238.5 L 825.6 238.5 L 825.6 238.5 Q 825.6 253.91 819.045 264.145 L 819.045 264.145 L 819.045 264.145 Q 812.49 274.38 797.77 279.44 L 797.77 279.44 L 797.77 279.44 Q 783.05 284.5 758.44 284.5 L 758.44 284.5 L 758.44 284.5 Q 742.34 284.5 729.46 282.775 L 729.46 282.775 L 729.46 282.775 Q 716.58 281.05 704.39 278.06 L 704.39 278.06 L 704.39 245.63 L 704.39 245.63 Z  M 915.3 282.43 L 878.5 282.43 L 878.5 167.89 L 837.1 167.89 L 837.1 136.84 L 956.7 136.84 L 956.7 167.89 L 915.3 167.89 L 915.3 282.43 L 915.3 282.43 Z " fill-rule="evenodd" fill="white" stroke="none"/></mask><path d=" M 267.5 171 L 611.5 171 C 636.06 171 656 190.94 656 215.5 L 656 215.5 C 656 240.06 636.06 260 611.5 260 L 267.5 260 C 242.94 260 223 240.06 223 215.5 L 223 215.5 C 223 190.94 242.94 171 267.5 171 L 267.5 171 L 267.5 171 Z  M 112.14 165.82 L 112.14 165.82 L 89.6 165.82 L 89.6 194.34 L 112.14 194.34 L 112.14 194.34 Q 123.41 194.34 128.47 191.465 L 128.47 191.465 L 128.47 191.465 Q 133.53 188.59 133.53 180.08 L 133.53 180.08 L 133.53 180.08 Q 133.53 171.8 128.47 168.81 L 128.47 168.81 L 128.47 168.81 Q 123.41 165.82 112.14 165.82 L 112.14 165.82 L 112.14 165.82 Z  M 116.74 224.47 L 116.74 224.47 L 89.6 224.47 L 89.6 253.68 L 116.74 253.68 L 116.74 253.68 Q 128.01 253.68 133.07 250.575 L 133.07 250.575 L 133.07 250.575 Q 138.13 247.47 138.13 238.96 L 138.13 238.96 L 138.13 238.96 Q 138.13 230.22 133.07 227.345 L 133.07 227.345 L 133.07 227.345 Q 128.01 224.47 116.74 224.47 L 116.74 224.47 L 116.74 224.47 Z  M 267.75 143.5 L 610.25 143.5 C 649.574 143.5 681.5 175.426 681.5 214.75 L 681.5 214.75 C 681.5 254.074 649.574 286 610.25 286 L 267.75 286 C 228.426 286 196.5 254.074 196.5 214.75 L 196.5 214.75 C 196.5 175.426 228.426 143.5 267.75 143.5 L 267.75 143.5 L 267.75 143.5 Z  M 176.08 245.17 L 176.08 245.17 L 176.08 245.17 Q 176.08 263.57 164.695 273 L 164.695 273 L 164.695 273 Q 153.31 282.43 124.56 282.43 L 124.56 282.43 L 52.8 282.43 L 52.8 136.84 L 61.77 136.84 L 61.77 136.84 L 122.26 136.84 L 122.26 136.84 Q 141.35 136.84 152.045 140.865 L 152.045 140.865 L 152.045 140.865 Q 162.74 144.89 167.11 152.71 L 167.11 152.71 L 167.11 152.71 Q 171.48 160.53 171.48 172.26 L 171.48 172.26 L 171.48 172.26 Q 171.48 188.36 163.775 197.215 L 163.775 197.215 L 163.775 197.215 Q 156.07 206.07 134.91 207.91 L 134.91 207.91 L 134.91 208.6 L 134.91 208.6 Q 150.55 209.75 159.52 213.775 L 159.52 213.775 L 159.52 213.775 Q 168.49 217.8 172.285 225.39 L 172.285 225.39 L 172.285 225.39 Q 176.08 232.98 176.08 245.17 L 176.08 245.17 L 176.08 245.17 Z  M 704.39 245.63 L 705.31 244.94 L 705.31 244.94 Q 715.43 248.39 727.505 250.345 L 727.505 250.345 L 727.505 250.345 Q 739.58 252.3 751.54 252.3 L 751.54 252.3 L 751.54 252.3 Q 767.87 252.3 775.805 250.805 L 775.805 250.805 L 775.805 250.805 Q 783.74 249.31 786.27 246.09 L 786.27 246.09 L 786.27 246.09 Q 788.8 242.87 788.8 237.81 L 788.8 237.81 L 788.8 237.81 Q 788.8 233.44 786.96 230.91 L 786.96 230.91 L 786.96 230.91 Q 785.12 228.38 779.83 226.885 L 779.83 226.885 L 779.83 226.885 Q 774.54 225.39 764.19 224.47 L 764.19 224.47 L 749.01 223.09 L 749.01 223.09 Q 731.99 221.48 722.215 215.96 L 722.215 215.96 L 722.215 215.96 Q 712.44 210.44 708.415 201.125 L 708.415 201.125 L 708.415 201.125 Q 704.39 191.81 704.39 178.7 L 704.39 178.7 L 704.39 178.7 Q 704.39 163.06 710.715 153.4 L 710.715 153.4 L 710.715 153.4 Q 717.04 143.74 731.3 139.255 L 731.3 139.255 L 731.3 139.255 Q 745.56 134.77 769.25 134.77 L 769.25 134.77 L 769.25 134.77 Q 800.07 134.77 820.08 142.82 L 820.08 142.82 L 819.39 174.1 L 818.7 175.02 L 818.7 175.02 Q 795.93 166.97 771.09 166.97 L 771.09 166.97 L 771.09 166.97 Q 759.13 166.97 752.69 168.235 L 752.69 168.235 L 752.69 168.235 Q 746.25 169.5 743.72 172.26 L 743.72 172.26 L 743.72 172.26 Q 741.19 175.02 741.19 180.08 L 741.19 180.08 L 741.19 180.08 Q 741.19 185.14 742.915 187.67 L 742.915 187.67 L 742.915 187.67 Q 744.64 190.2 749.93 191.465 L 749.93 191.465 L 749.93 191.465 Q 755.22 192.73 765.34 193.88 L 765.34 193.88 L 779.83 195.49 L 779.83 195.49 Q 798.23 197.56 808.12 202.85 L 808.12 202.85 L 808.12 202.85 Q 818.01 208.14 821.805 216.995 L 821.805 216.995 L 821.805 216.995 Q 825.6 225.85 825.6 238.5 L 825.6 238.5 L 825.6 238.5 Q 825.6 253.91 819.045 264.145 L 819.045 264.145 L 819.045 264.145 Q 812.49 274.38 797.77 279.44 L 797.77 279.44 L 797.77 279.44 Q 783.05 284.5 758.44 284.5 L 758.44 284.5 L 758.44 284.5 Q 742.34 284.5 729.46 282.775 L 729.46 282.775 L 729.46 282.775 Q 716.58 281.05 704.39 278.06 L 704.39 278.06 L 704.39 245.63 L 704.39 245.63 Z  M 915.3 282.43 L 878.5 282.43 L 878.5 167.89 L 837.1 167.89 L 837.1 136.84 L 956.7 136.84 L 956.7 167.89 L 915.3 167.89 L 915.3 282.43 L 915.3 282.43 Z " fill-rule="evenodd" fill="none"/><path d=" M 267.5 171 L 611.5 171 C 636.06 171 656 190.94 656 215.5 L 656 215.5 C 656 240.06 636.06 260 611.5 260 L 267.5 260 C 242.94 260 223 240.06 223 215.5 L 223 215.5 C 223 190.94 242.94 171 267.5 171 L 267.5 171 L 267.5 171 Z  M 112.14 165.82 L 112.14 165.82 L 89.6 165.82 L 89.6 194.34 L 112.14 194.34 L 112.14 194.34 Q 123.41 194.34 128.47 191.465 L 128.47 191.465 L 128.47 191.465 Q 133.53 188.59 133.53 180.08 L 133.53 180.08 L 133.53 180.08 Q 133.53 171.8 128.47 168.81 L 128.47 168.81 L 128.47 168.81 Q 123.41 165.82 112.14 165.82 L 112.14 165.82 L 112.14 165.82 Z  M 116.74 224.47 L 116.74 224.47 L 89.6 224.47 L 89.6 253.68 L 116.74 253.68 L 116.74 253.68 Q 128.01 253.68 133.07 250.575 L 133.07 250.575 L 133.07 250.575 Q 138.13 247.47 138.13 238.96 L 138.13 238.96 L 138.13 238.96 Q 138.13 230.22 133.07 227.345 L 133.07 227.345 L 133.07 227.345 Q 128.01 224.47 116.74 224.47 L 116.74 224.47 L 116.74 224.47 Z  M 267.75 143.5 L 610.25 143.5 C 649.574 143.5 681.5 175.426 681.5 214.75 L 681.5 214.75 C 681.5 254.074 649.574 286 610.25 286 L 267.75 286 C 228.426 286 196.5 254.074 196.5 214.75 L 196.5 214.75 C 196.5 175.426 228.426 143.5 267.75 143.5 L 267.75 143.5 L 267.75 143.5 Z  M 176.08 245.17 L 176.08 245.17 L 176.08 245.17 Q 176.08 263.57 164.695 273 L 164.695 273 L 164.695 273 Q 153.31 282.43 124.56 282.43 L 124.56 282.43 L 52.8 282.43 L 52.8 136.84 L 61.77 136.84 L 61.77 136.84 L 122.26 136.84 L 122.26 136.84 Q 141.35 136.84 152.045 140.865 L 152.045 140.865 L 152.045 140.865 Q 162.74 144.89 167.11 152.71 L 167.11 152.71 L 167.11 152.71 Q 171.48 160.53 171.48 172.26 L 171.48 172.26 L 171.48 172.26 Q 171.48 188.36 163.775 197.215 L 163.775 197.215 L 163.775 197.215 Q 156.07 206.07 134.91 207.91 L 134.91 207.91 L 134.91 208.6 L 134.91 208.6 Q 150.55 209.75 159.52 213.775 L 159.52 213.775 L 159.52 213.775 Q 168.49 217.8 172.285 225.39 L 172.285 225.39 L 172.285 225.39 Q 176.08 232.98 176.08 245.17 L 176.08 245.17 L 176.08 245.17 Z  M 704.39 245.63 L 705.31 244.94 L 705.31 244.94 Q 715.43 248.39 727.505 250.345 L 727.505 250.345 L 727.505 250.345 Q 739.58 252.3 751.54 252.3 L 751.54 252.3 L 751.54 252.3 Q 767.87 252.3 775.805 250.805 L 775.805 250.805 L 775.805 250.805 Q 783.74 249.31 786.27 246.09 L 786.27 246.09 L 786.27 246.09 Q 788.8 242.87 788.8 237.81 L 788.8 237.81 L 788.8 237.81 Q 788.8 233.44 786.96 230.91 L 786.96 230.91 L 786.96 230.91 Q 785.12 228.38 779.83 226.885 L 779.83 226.885 L 779.83 226.885 Q 774.54 225.39 764.19 224.47 L 764.19 224.47 L 749.01 223.09 L 749.01 223.09 Q 731.99 221.48 722.215 215.96 L 722.215 215.96 L 722.215 215.96 Q 712.44 210.44 708.415 201.125 L 708.415 201.125 L 708.415 201.125 Q 704.39 191.81 704.39 178.7 L 704.39 178.7 L 704.39 178.7 Q 704.39 163.06 710.715 153.4 L 710.715 153.4 L 710.715 153.4 Q 717.04 143.74 731.3 139.255 L 731.3 139.255 L 731.3 139.255 Q 745.56 134.77 769.25 134.77 L 769.25 134.77 L 769.25 134.77 Q 800.07 134.77 820.08 142.82 L 820.08 142.82 L 819.39 174.1 L 818.7 175.02 L 818.7 175.02 Q 795.93 166.97 771.09 166.97 L 771.09 166.97 L 771.09 166.97 Q 759.13 166.97 752.69 168.235 L 752.69 168.235 L 752.69 168.235 Q 746.25 169.5 743.72 172.26 L 743.72 172.26 L 743.72 172.26 Q 741.19 175.02 741.19 180.08 L 741.19 180.08 L 741.19 180.08 Q 741.19 185.14 742.915 187.67 L 742.915 187.67 L 742.915 187.67 Q 744.64 190.2 749.93 191.465 L 749.93 191.465 L 749.93 191.465 Q 755.22 192.73 765.34 193.88 L 765.34 193.88 L 779.83 195.49 L 779.83 195.49 Q 798.23 197.56 808.12 202.85 L 808.12 202.85 L 808.12 202.85 Q 818.01 208.14 821.805 216.995 L 821.805 216.995 L 821.805 216.995 Q 825.6 225.85 825.6 238.5 L 825.6 238.5 L 825.6 238.5 Q 825.6 253.91 819.045 264.145 L 819.045 264.145 L 819.045 264.145 Q 812.49 274.38 797.77 279.44 L 797.77 279.44 L 797.77 279.44 Q 783.05 284.5 758.44 284.5 L 758.44 284.5 L 758.44 284.5 Q 742.34 284.5 729.46 282.775 L 729.46 282.775 L 729.46 282.775 Q 716.58 281.05 704.39 278.06 L 704.39 278.06 L 704.39 245.63 L 704.39 245.63 Z  M 915.3 282.43 L 878.5 282.43 L 878.5 167.89 L 837.1 167.89 L 837.1 136.84 L 956.7 136.84 L 956.7 167.89 L 915.3 167.89 L 915.3 282.43 L 915.3 282.43 Z " fill-rule="evenodd" fill="none" mask="url(#_mask_tZzT7hh3ilf7iUcgVimS4BVTbUUgpLZn)" vector-effect="non-scaling-stroke" stroke-width="66" stroke="rgb(0,0,0)" stroke-linejoin="miter" stroke-linecap="square" stroke-miterlimit="3"/></g></svg>