<?xml version="1.0" encoding="UTF-8" standalone="no"?><!-- Generator: Gravit.io --><svg xmlns="http://www.w3.org/2000/svg" xmlns:xlink="http://www.w3.org/1999/xlink" style="isolation:isolate" viewBox="0 0 1000 1000" width="1000pt" height="1000pt"><defs><clipPath id="_clipPath_bqWd5LqXKqOTCqxJfUmt6UF8uxqrmBad"><rect width="1000" height="1000"/></clipPath></defs><g clip-path="url(#_clipPath_bqWd5LqXKqOTCqxJfUmt6UF8uxqrmBad)"><clipPath id="_clipPath_8WMjs0uoQIU3fPiyQYuITTa7pLEqora6"><rect x="20" y="20" width="960" height="960" transform="matrix(1,0,0,1,0,0)" fill="rgb(255,255,255)"/></clipPath><g clip-path="url(#_clipPath_8WMjs0uoQIU3fPiyQYuITTa7pLEqora6)"><g><clipPath id="_clipPath_zBfanT1IIFXgUbziRa8lbBvMZAAv67Sy"><rect x="142" y="58" width="715" height="885" transform="matrix(1,0,0,1,0,0)" fill="rgb(255,255,255)"/></clipPath><g clip-path="url(#_clipPath_zBfanT1IIFXgUbziRa8lbBvMZAAv67Sy)"><g><linearGradient id="_lgradient_0" x1="0.5" y1="0" x2="0.49999999999999983" y2="0.9999999999999998" gradientTransform="matrix(-74.134,0,0,270.326,477.21,546.374)" gradientUnits="userSpaceOnUse"><stop offset="0%" stop-opacity="1" style="stop-color:rgb(36,233,193)"/><stop offset="100%" stop-opacity="1" style="stop-color:rgb(14,171,166)"/></linearGradient><path d=" M 442.894 806.5 L 403.076 547.92 L 403.738 547.831 C 404.316 551.538 406.976 558.856 418.893 560.108 C 432.987 561.589 436.069 549.456 436.623 546.374 L 437.369 546.519 L 476.56 808.519 L 477.21 810.709 L 473.178 811.909 L 457.121 816.7 L 441.702 808.847 L 442.894 806.5 Z  M 417.912 570.379 C 417.831 569.385 418.57 568.513 419.564 568.432 C 420.558 568.351 421.43 569.09 421.511 570.084 C 427.591 644.245 437.755 718.014 451.957 791.056 C 452.147 792.035 451.508 792.982 450.529 793.173 C 449.55 793.363 448.603 792.724 448.412 791.745 C 434.185 718.573 424.003 644.672 417.912 570.379 Z " fill-rule="evenodd" fill="url(#_lgradient_0)"/><linearGradient id="_lgradient_1" x1="0.5" y1="0" x2="0.49999999999999983" y2="1.0000000000000002" gradientTransform="matrix(-182.028,0,0,343.057,442.892,465.794)" gradientUnits="userSpaceOnUse"><stop offset="0%" stop-opacity="1" style="stop-color:rgb(36,233,193)"/><stop offset="100%" stop-opacity="1" style="stop-color:rgb(14,171,166)"/></linearGradient><path d=" M 273.623 472.931 L 260.864 465.794 L 271.336 524.653 C 281.11 524.135 288.621 564.542 288.898 583.464 L 288.886 583.524 C 298.189 585.635 307.179 588.945 315.631 593.37 C 319.073 595.188 322.504 597.246 324.947 600.279 C 327.39 603.312 328.667 607.537 327.331 611.197 C 325.995 614.857 320.506 617.889 316.931 616.324 L 316.871 616.433 C 317.148 616.577 317.412 616.746 317.689 616.902 C 322.781 619.959 328.173 624.63 327.547 630.528 C 326.957 636.016 319.495 639.615 314.62 637.039 L 314.584 637.1 C 316.112 637.978 317.617 638.881 319.122 639.8 C 321.24 641.088 323.422 642.5 324.695 644.626 C 325.968 646.752 326.043 649.838 324.177 651.487 C 322.42 653.04 319.76 652.799 317.461 652.387 C 309.568 651.109 301.811 649.103 294.29 646.393 L 293.99 647.199 L 304.233 707.286 L 310.143 741.928 L 441.7 808.851 L 442.892 806.504 L 403.077 547.92 L 403.739 547.82 C 403.625 547.104 403.577 546.379 403.595 545.654 L 273.623 472.931 Z " fill="url(#_lgradient_1)"/><linearGradient id="_lgradient_2" x1="0.5000190659403625" y1="0" x2="0.5000190659403623" y2="1.0000035859398118" gradientTransform="matrix(-42.558,0,0,23.662,383.322,408.524)" gradientUnits="userSpaceOnUse"><stop offset="0%" stop-opacity="1" style="stop-color:rgb(36,233,193)"/><stop offset="100%" stop-opacity="1" style="stop-color:rgb(14,171,166)"/></linearGradient><path d=" M 344.362 414.168 C 343.186 414.335 341.998 414.399 340.812 414.361 L 340.764 415.661 C 341.558 420.961 343.58 428.829 348.672 431.2 C 351.885 432.693 355.672 432.187 359.204 431.646 C 364.03 430.913 368.86 430.175 373.696 429.431 C 376.922 428.949 380.496 428.251 382.362 425.724 C 384.3 423.088 382.82 419.681 382.109 416.524 C 381.455 413.819 380.664 411.149 379.738 408.524 C 376.84 409.571 373.824 410.254 370.759 410.558 L 344.362 414.168 Z " fill="url(#_lgradient_2)"/><linearGradient id="_lgradient_3" x1="0.4999983131763628" y1="0" x2="0.4999983131763626" y2="1.0000197890466005" gradientTransform="matrix(-56.766,0,0,19.648,386.402,394.729)" gradientUnits="userSpaceOnUse"><stop offset="0%" stop-opacity="1" style="stop-color:rgb(36,233,193)"/><stop offset="100%" stop-opacity="1" style="stop-color:rgb(14,171,166)"/></linearGradient><path d=" M 383.721 394.729 C 381.921 396.065 379.16 396.511 375.356 396.823 C 363.018 397.847 350.572 398.223 338.199 398.923 C 336.588 399.064 334.966 399.036 333.36 398.839 L 330.038 398.923 C 328.798 405.923 330.375 412.5 335.466 413.692 C 337.219 414.107 339.011 414.333 340.811 414.366 C 341.998 414.404 343.186 414.34 344.361 414.173 L 370.761 410.562 C 373.827 410.258 376.843 409.575 379.74 408.529 C 381.127 407.98 382.411 407.202 383.54 406.228 C 386.91 403.279 387.668 397.31 383.829 394.878 L 383.721 394.729 Z " fill="url(#_lgradient_3)"/><linearGradient id="_lgradient_4" x1="0.49999950721533093" y1="0.00000768040112220092" x2="0.49999950721533076" y2="0.9999986755894383" gradientTransform="matrix(-186.976,0,0,91.194,662.637,835.853)" gradientUnits="userSpaceOnUse"><stop offset="0%" stop-opacity="1" style="stop-color:rgb(36,233,193)"/><stop offset="100%" stop-opacity="1" style="stop-color:rgb(14,171,166)"/></linearGradient><path d=" M 647.037 910.488 C 652.873 905.987 657.355 899.964 659.99 893.08 C 662.624 886.197 663.309 878.72 661.969 871.472 C 660.629 864.225 657.316 857.487 652.394 852.001 C 647.472 846.514 641.133 842.492 634.073 840.375 C 631.762 840.275 629.451 840.23 627.188 840.206 C 601.755 839.881 576.326 839.56 550.9 839.243 C 542.643 839.135 533.459 840.194 525.611 837.101 L 525.526 837.301 C 516.535 834.124 505.341 836.459 496.47 841.55 L 496.735 842.02 C 508.41 846.762 521.135 847.232 533.856 846.69 C 538.756 846.49 543.656 846.124 548.492 845.811 C 552.043 845.571 555.642 845.378 559.241 845.294 C 569.241 845.017 579.294 845.547 588.599 848.351 C 592.425 849.482 596.108 851.049 599.576 853.021 C 608.784 858.305 616.584 868.513 614.201 878.852 C 612.214 887.47 603.969 893.116 595.869 896.666 C 592.419 898.172 588.882 899.466 585.276 900.542 C 576.107 903.233 566.636 904.762 557.086 905.092 C 550.059 905.376 543.02 905.17 536.022 904.478 C 531.809 904.069 527.609 903.515 523.432 902.841 C 507.568 900.289 491.956 896.041 476.432 891.816 L 475.661 891.936 C 477.152 900.743 480.028 909.258 484.183 917.165 L 483.783 919.825 C 494.001 921.379 504.249 922.715 514.525 923.833 C 549.576 927.697 585.409 929.322 619.786 921.45 C 629.343 919.259 639.008 916.15 647.542 911.411 L 647.037 910.488 Z " fill="url(#_lgradient_4)"/><path d=" M 562.153 306.007 C 558.412 302.546 553.962 299.94 549.113 298.371 C 544.264 296.801 539.131 296.306 534.071 296.919 C 532.001 297.184 529.726 297.786 528.619 299.567 C 528.182 300.383 527.967 301.3 527.996 302.225 C 528.026 303.151 528.299 304.052 528.787 304.839 C 529.784 306.397 531.097 307.73 532.639 308.751 C 536.823 311.873 541.385 314.454 546.216 316.431 C 540.516 315.01 533.734 315.552 528.041 316.996 C 525.393 317.658 522.432 319.079 521.951 321.763 C 521.445 324.64 524.105 327.063 526.657 328.479 C 535.721 333.535 546.257 334.124 556.749 332.979 C 561.456 332.437 566.132 331.658 570.759 330.644 C 585.492 327.526 600.859 323.578 615.331 327.731 C 620.952 329.344 626.573 332.522 628.969 337.854 C 630.582 341.465 630.521 345.581 630.425 349.541 C 630.196 359.014 629.963 368.483 629.725 377.948 L 629.942 377.948 C 632.253 380.042 633.372 383.1 634.624 385.964 C 635.876 388.828 637.537 391.778 640.377 393.09 C 641.081 393.47 641.874 393.653 642.673 393.619 C 643.472 393.585 644.247 393.336 644.915 392.898 C 646.348 391.766 646.504 389.672 646.396 387.842 C 646.216 385.003 645.686 382.198 644.819 379.489 C 645.536 380.519 646.424 381.418 647.443 382.149 C 650.332 384.171 655.062 383.906 656.615 380.749 C 657.915 378.088 656.434 374.983 655.062 372.359 C 649.405 361.49 645.276 349.659 644.462 337.441 C 644.185 333.264 644.293 329.051 643.595 324.934 C 642.897 320.817 641.295 316.665 638.195 313.861 C 634.695 310.707 629.781 309.672 625.075 309.287 C 617.215 308.649 609.319 309.487 601.435 309.178 C 593.551 308.869 585.402 307.253 579.191 302.39 C 573.738 298.129 570.043 291.581 563.76 288.68 C 561.196 287.488 557.501 287.356 556.165 289.848 C 555.595 291.215 555.539 292.743 556.008 294.148 C 557.076 298.526 559.252 302.555 562.328 305.848 L 562.153 306.007 Z " fill="rgb(23,23,23)"/><linearGradient id="_lgradient_5" x1="0.4999974973346617" y1="0" x2="0.49999749733466153" y2="1.0000000000000002" gradientTransform="matrix(-199.787,0,0,306.68,636.401,504.022)" gradientUnits="userSpaceOnUse"><stop offset="0%" stop-opacity="1" style="stop-color:rgb(36,233,193)"/><stop offset="100%" stop-opacity="1" style="stop-color:rgb(14,171,166)"/></linearGradient><path d=" M 578.699 655.383 C 580.866 650.015 587.161 650.051 592.855 651.122 L 592.879 651.05 C 591.591 650.617 590.303 650.159 589.015 649.69 C 586.343 648.715 583.615 647.656 581.504 645.742 C 579.393 643.828 578.025 640.831 578.784 638.087 C 579.59 635.234 582.479 633.38 585.404 632.911 C 588.329 632.442 591.304 633.103 594.191 633.753 C 603.579 635.86 612.98 638.448 622.368 640.674 L 622.381 640.602 C 622.056 638.802 621.791 637.027 621.562 635.27 L 621.526 635.27 L 606.661 504.022 L 595.322 506.803 L 436.722 545.657 C 436.722 545.657 436.698 545.91 436.614 546.367 L 437.36 546.512 L 476.551 808.512 L 477.201 810.702 L 636.401 763.17 L 634.788 748.641 L 629.6 701.71 L 629.649 701.133 C 617.112 700.156 604.757 697.538 592.901 693.345 C 588.917 691.913 584.92 690.191 581.901 687.245 C 578.882 684.299 577.014 679.819 578.182 675.762 C 579.35 671.705 585.082 668.262 588.919 670.033 L 588.967 669.901 C 586.18 668.929 583.62 667.398 581.444 665.401 C 578.836 662.822 577.343 658.79 578.699 655.383 Z " fill="url(#_lgradient_5)"/><path d=" M 796.424 721.007 C 781.859 730.191 763.696 731.154 746.46 731.154 C 736.228 731.154 725.732 730.817 715.152 730.191 L 715.14 730.312 C 642.21 746.958 641.078 747.103 635.975 748.512 L 634.795 748.644 L 636.408 763.173 L 477.208 810.705 L 473.176 811.905 L 473.276 812.23 C 486.228 817.33 515.994 832.187 523.192 836.003 C 523.975 836.419 524.783 836.786 525.612 837.103 C 533.46 840.196 542.644 839.137 550.901 839.245 C 576.334 839.57 601.763 839.891 627.189 840.208 C 629.452 840.232 631.763 840.281 634.074 840.377 C 644.931 840.834 655.945 842.495 663.925 849.561 C 669.763 854.725 672.712 862.007 673.225 869.71 L 674.068 869.662 C 717.954 869.867 759.011 863.728 801.32 852.04 C 819.471 847.021 838.838 839.775 848.455 823.586 C 856.026 810.815 855.93 794.854 852.981 780.302 C 848.997 760.586 839.223 741.255 822.504 730.049 C 803.775 717.506 797.404 720.479 797.404 720.479 L 797.356 720.395 C 797.05 720.61 796.737 720.8 796.424 721.007 Z " fill="rgb(23,23,23)"/><path d=" M 583.299 450.29 C 588.644 444.633 585.799 431.39 580.543 425.651 C 575.287 419.912 566.412 418.225 562.271 411.629 C 558.083 404.972 559.334 394.368 558.985 386.52 C 558.203 368.742 557.465 350.968 556.771 333.198" fill="none" vector-effect="non-scaling-stroke" stroke-width="3.611" stroke="rgb(23,23,23)" stroke-linejoin="round" stroke-linecap="round" stroke-miterlimit="4"/><path d=" M 570.061 357.656 C 572.903 356.826 575.739 355.996 578.571 355.165" fill="none" vector-effect="non-scaling-stroke" stroke-width="3.611" stroke="rgb(23,23,23)" stroke-linejoin="round" stroke-linecap="round" stroke-miterlimit="4"/><path d=" M 567.571 341.684 C 574.681 340.046 582.052 339.89 589.224 341.226 C 590.109 357.009 587.846 372.811 582.568 387.712 C 583.656 388.811 585.044 389.564 586.558 389.876 C 588.072 390.189 589.644 390.047 591.078 389.469" fill="none" vector-effect="non-scaling-stroke" stroke-width="3.611" stroke="rgb(23,23,23)" stroke-linejoin="round" stroke-linecap="round" stroke-miterlimit="4"/><path d=" M 600.719 353.637 C 604.597 352.469 608.733 352.469 612.611 353.637" fill="none" vector-effect="non-scaling-stroke" stroke-width="3.611" stroke="rgb(23,23,23)" stroke-linejoin="round" stroke-linecap="round" stroke-miterlimit="4"/><path d=" M 598.168 413.901 C 603.441 414.035 608.587 412.271 612.668 408.929" fill="none" vector-effect="non-scaling-stroke" stroke-width="3.611" stroke="rgb(23,23,23)" stroke-linejoin="round" stroke-linecap="round" stroke-miterlimit="4"/><path d=" M 700.913 555.9 C 718.34 566.992 731.931 583.18 739.839 602.265 C 744.618 613.845 746.267 629.216 736.529 637.1 C 730.716 641.806 722.615 642.227 715.129 642.239 C 694.638 642.287 674.169 640.94 653.862 638.207 C 653.762 640.35 653.67 642.48 653.562 644.623 C 652.683 663.713 651.8 682.807 650.913 701.905 C 650.587 709.043 650.258 716.181 649.926 723.318" fill="none" vector-effect="non-scaling-stroke" stroke-width="3.611" stroke="rgb(23,23,23)" stroke-linejoin="round" stroke-linecap="round" stroke-miterlimit="4"/><path d=" M 649.924 723.318 C 670.924 726.412 693.208 728.903 715.151 730.191 C 725.731 730.817 736.227 731.154 746.459 731.154 C 763.695 731.154 781.859 730.191 796.423 721.007 C 796.736 720.807 797.049 720.607 797.362 720.393 C 811.782 710.848 820.328 694.493 826.033 678.108 C 835.867 649.919 839.093 618.888 831.461 590.024 C 820.999 550.435 790.549 517.912 754.09 499.28 C 720.941 482.332 683.254 475.989 645.928 476.193 C 642.195 476.205 638.472 476.286 634.758 476.434" fill="none" vector-effect="non-scaling-stroke" stroke-width="3.611" stroke="rgb(23,23,23)" stroke-linejoin="round" stroke-linecap="round" stroke-miterlimit="4"/><path d=" M 645.929 475.592 C 647.181 471.753 648.457 467.829 648.373 463.785 C 648.289 459.741 646.579 455.514 643.101 453.456 C 640.489 451.915 637.323 451.796 634.301 451.712 C 632.182 451.652 630.052 451.602 627.933 451.542 L 583.301 450.352 C 581.376 450.303 579.438 450.243 577.512 450.195 C 570.988 450.027 564.127 449.93 558.374 453.024 C 552.621 456.118 550.092 463.05 553.162 468.804" fill="none" vector-effect="non-scaling-stroke" stroke-width="3.611" stroke="rgb(23,23,23)" stroke-linejoin="round" stroke-linecap="round" stroke-miterlimit="4"/><path d=" M 565.669 469.826 C 561.528 469.549 557.356 469.304 553.151 469.092 C 484.626 465.649 407.904 470.861 343.556 491.564" fill="none" vector-effect="non-scaling-stroke" stroke-width="3.611" stroke="rgb(23,23,23)" stroke-linejoin="round" stroke-linecap="round" stroke-miterlimit="4"/><path d=" M 621.964 639.122 L 621.531 635.27 L 606.666 504.022 L 595.327 506.803 L 436.727 545.657 C 436.727 545.657 436.703 545.91 436.619 546.367 C 436.065 549.448 432.983 561.581 418.889 560.101 C 406.972 558.849 404.312 551.531 403.734 547.823 C 403.62 547.107 403.572 546.382 403.59 545.657 L 273.618 472.931 L 260.859 465.794 L 271.331 524.653" fill="none" vector-effect="non-scaling-stroke" stroke-width="3.611" stroke="rgb(23,23,23)" stroke-linejoin="round" stroke-linecap="round" stroke-miterlimit="4"/><path d=" M 293.989 647.198 L 304.232 707.285 L 310.142 741.927 L 441.703 808.851 L 457.122 816.699 L 473.179 811.908 L 477.211 810.704 L 636.408 763.172 L 634.795 748.643 L 629.608 701.712" fill="none" vector-effect="non-scaling-stroke" stroke-width="3.611" stroke="rgb(23,23,23)" stroke-linejoin="round" stroke-linecap="round" stroke-miterlimit="4"/><line x1="437.37" y1="546.513" x2="476.561" y2="808.515" vector-effect="non-scaling-stroke" stroke-width="3.611" stroke="rgb(23,23,23)" stroke-linejoin="round" stroke-linecap="round" stroke-miterlimit="4"/><path d=" M 402.956 547.15 L 403.077 547.92 L 442.895 806.504" fill="none" vector-effect="non-scaling-stroke" stroke-width="3.611" stroke="rgb(23,23,23)" stroke-linejoin="round" stroke-linecap="round" stroke-miterlimit="4"/><path d=" M 596.049 507.212 L 595.327 506.803 L 582.869 499.773 L 426.537 538.014 L 343.255 492.106 L 293.989 464.939 L 273.623 472.931 L 273.033 473.16" fill="none" vector-effect="non-scaling-stroke" stroke-width="3.611" stroke="rgb(23,23,23)" stroke-linejoin="round" stroke-linecap="round" stroke-miterlimit="4"/><path d=" M 288.899 583.464 C 288.622 564.543 281.111 524.135 271.337 524.653 C 263.405 525.553 266.715 540.409 267.955 548.907 C 270.355 565.361 267.22 582.092 267.497 598.715 C 267.774 615.338 272.565 633.452 286.274 642.853" fill="none" vector-effect="non-scaling-stroke" stroke-width="3.611" stroke="rgb(23,23,23)" stroke-linejoin="round" stroke-linecap="round" stroke-miterlimit="4"/><path d=" M 286.272 642.853 C 288.872 644.191 291.549 645.373 294.289 646.392 C 301.811 649.102 309.568 651.108 317.459 652.386 C 319.759 652.795 322.419 653.036 324.176 651.486 C 326.042 649.837 325.976 646.768 324.694 644.625 C 323.412 642.482 321.239 641.087 319.121 639.799 C 317.621 638.884 316.111 637.981 314.583 637.099 C 303.922 630.923 292.78 625.618 281.265 621.235" fill="none" vector-effect="non-scaling-stroke" stroke-width="3.611" stroke="rgb(23,23,23)" stroke-linejoin="round" stroke-linecap="round" stroke-miterlimit="4"/><path d=" M 314.524 636.991 C 314.56 637.003 314.584 637.027 314.624 637.039 C 319.499 639.615 326.961 636.016 327.551 630.527 C 328.177 624.627 322.785 619.959 317.693 616.902 C 317.416 616.745 317.152 616.577 316.875 616.433 C 305.648 609.835 293.266 605.44 280.392 603.481" fill="none" vector-effect="non-scaling-stroke" stroke-width="3.611" stroke="rgb(23,23,23)" stroke-linejoin="round" stroke-linecap="round" stroke-miterlimit="4"/><path d=" M 316.931 616.324 C 320.506 617.889 326.007 614.856 327.331 611.197 C 328.655 607.538 327.379 603.313 324.947 600.279 C 322.515 597.245 319.073 595.188 315.631 593.37 C 307.179 588.945 298.189 585.635 288.886 583.524 C 284.96 582.624 280.988 581.945 276.986 581.49" fill="none" vector-effect="non-scaling-stroke" stroke-width="3.611" stroke="rgb(23,23,23)" stroke-linejoin="round" stroke-linecap="round" stroke-miterlimit="4"/><path d=" M 622.386 640.6 C 622.061 638.8 621.796 637.025 621.567 635.268 C 620.893 629.984 620.616 624.82 620.387 619.175 C 620.303 617.02 619.701 614.625 621.049 612.94 C 622.831 610.725 626.574 611.279 628.649 613.229 C 630.724 615.179 631.622 618.029 632.681 620.679 C 636.783 630.761 644.132 639.187 653.564 644.62 C 653.685 644.693 653.805 644.753 653.926 644.825" fill="none" vector-effect="non-scaling-stroke" stroke-width="3.611" stroke="rgb(23,23,23)" stroke-linejoin="round" stroke-linecap="round" stroke-miterlimit="4"/><path d=" M 626.2 641.566 C 624.924 641.277 623.648 640.976 622.372 640.675 C 612.984 638.449 603.583 635.861 594.195 633.754 C 591.306 633.104 588.333 632.442 585.408 632.912 C 582.483 633.382 579.594 635.235 578.788 638.088 C 578.029 640.832 579.402 643.817 581.508 645.743 C 583.614 647.669 586.347 648.716 589.019 649.691 C 590.307 650.16 591.595 650.618 592.883 651.051 C 605.345 655.366 618.111 658.746 631.075 661.162" fill="none" vector-effect="non-scaling-stroke" stroke-width="3.611" stroke="rgb(23,23,23)" stroke-linejoin="round" stroke-linecap="round" stroke-miterlimit="4"/><path d=" M 592.86 651.122 C 587.166 650.051 580.871 650.015 578.704 655.383 C 577.344 658.79 578.837 662.822 581.449 665.398 C 583.624 667.395 586.184 668.926 588.972 669.898 C 589.646 670.175 590.332 670.428 591.006 670.681 C 603.423 675.24 616.285 678.483 629.379 680.358" fill="none" vector-effect="non-scaling-stroke" stroke-width="3.611" stroke="rgb(23,23,23)" stroke-linejoin="round" stroke-linecap="round" stroke-miterlimit="4"/><path d=" M 588.924 670.032 C 585.084 668.262 579.342 671.705 578.187 675.761 C 577.032 679.817 578.887 684.283 581.906 687.244 C 584.925 690.205 588.924 691.914 592.906 693.344 C 604.762 697.536 617.117 700.154 629.654 701.132 C 636.611 701.745 643.64 701.962 650.742 701.89" fill="none" vector-effect="non-scaling-stroke" stroke-width="3.611" stroke="rgb(23,23,23)" stroke-linejoin="round" stroke-linecap="round" stroke-miterlimit="4"/><path d=" M 303.558 707.407 C 286.936 699.968 274.538 695.201 256.338 695.671 C 238.138 696.141 219.013 705.89 212.85 723.018 C 206.663 740.207 214.776 759.128 224.465 774.607 C 245.878 808.779 275.681 836.993 309.637 858.96 C 315.679 862.872 321.842 866.579 328.125 870.082 C 330.978 871.682 333.855 873.224 336.743 874.728 C 341.666 877.316 346.642 879.771 351.669 882.095 C 356.435 884.309 361.238 886.42 366.077 888.426 C 374.563 891.941 383.157 895.167 391.859 898.104 C 396.792 899.777 401.759 901.366 406.759 902.87 C 416.015 905.65 425.348 908.154 434.759 910.381 C 450.936 914.233 467.318 917.338 483.784 919.83 C 494.003 921.382 504.25 922.718 514.526 923.838 C 549.577 927.702 585.41 929.327 619.787 921.455 C 629.344 919.264 639.009 916.155 647.543 911.416 C 654.224 907.827 660.111 902.926 664.852 897.008 C 670.829 889.207 673.802 879.518 673.229 869.708 C 672.712 862.008 669.763 854.722 663.929 849.559 C 655.949 842.493 644.935 840.832 634.078 840.375 C 631.767 840.275 629.456 840.23 627.193 840.206 C 601.76 839.88 576.331 839.559 550.905 839.243 C 542.648 839.135 533.464 840.194 525.616 837.101 C 524.788 836.784 523.979 836.417 523.196 836.001 C 515.996 832.186 486.232 817.333 473.28 812.229" fill="none" vector-effect="non-scaling-stroke" stroke-width="3.611" stroke="rgb(23,23,23)" stroke-linejoin="round" stroke-linecap="round" stroke-miterlimit="4"/><path d=" M 797.411 720.478 C 797.411 720.478 803.778 717.505 822.511 730.047 C 839.226 741.253 849 760.584 852.984 780.3 C 855.933 794.852 856.029 810.813 848.458 823.584 C 838.841 839.773 819.474 847.019 801.323 852.038 C 759.014 863.726 717.957 869.865 674.071 869.66" fill="none" vector-effect="non-scaling-stroke" stroke-width="3.611" stroke="rgb(23,23,23)" stroke-linejoin="round" stroke-linecap="round" stroke-miterlimit="4"/><path d=" M 635.975 748.512 C 641.075 747.104 642.21 746.959 715.14 730.312" fill="none" vector-effect="non-scaling-stroke" stroke-width="3.611" stroke="rgb(23,23,23)" stroke-linejoin="round" stroke-linecap="round" stroke-miterlimit="4"/><path d=" M 434.612 911.006 C 414.234 923.606 392.857 931.348 369.35 935.982 C 364.86 936.873 360.298 937.595 355.724 938.076 C 343.314 939.388 330.748 938.931 318.952 935.055 C 302.811 929.755 288.367 917.072 284.563 900.51 C 281.169 885.729 290.257 868.31 303.954 861.704 C 305.593 860.906 307.306 860.273 309.07 859.814" fill="none" vector-effect="non-scaling-stroke" stroke-width="3.611" stroke="rgb(23,23,23)" stroke-linejoin="round" stroke-linecap="round" stroke-miterlimit="4"/><path d=" M 627.933 451.627 L 627.933 451.543 C 628.533 427.009 629.131 402.479 629.727 377.951 C 629.968 368.478 630.201 359.009 630.427 349.544 C 630.527 345.584 630.583 341.468 628.971 337.857 C 626.571 332.525 620.954 329.347 615.333 327.734 C 600.865 323.581 585.494 327.534 570.761 330.647 C 566.134 331.66 561.458 332.44 556.751 332.982 C 546.251 334.126 535.722 333.536 526.659 328.482 C 524.107 327.062 521.447 324.643 521.953 321.766 C 522.434 319.082 525.395 317.666 528.043 316.999 C 533.736 315.555 540.513 315.013 546.218 316.434" fill="none" vector-effect="non-scaling-stroke" stroke-width="3.611" stroke="rgb(23,23,23)" stroke-linejoin="round" stroke-linecap="round" stroke-miterlimit="4"/><path d=" M 546.216 316.431 C 541.385 314.454 536.823 311.873 532.639 308.751 C 531.096 307.73 529.784 306.398 528.787 304.839 C 528.299 304.053 528.026 303.151 527.996 302.226 C 527.967 301.3 528.182 300.383 528.619 299.567 C 529.726 297.786 532.001 297.184 534.071 296.919 C 539.131 296.306 544.264 296.801 549.113 298.371 C 553.962 299.94 558.412 302.546 562.153 306.007 C 561.768 305.67 561.383 305.345 560.985 305.02" fill="none" vector-effect="non-scaling-stroke" stroke-width="3.611" stroke="rgb(23,23,23)" stroke-linejoin="round" stroke-linecap="round" stroke-miterlimit="4"/><path d=" M 644.821 379.479 C 643.582 377.592 642.565 375.568 641.788 373.448" fill="none" vector-effect="non-scaling-stroke" stroke-width="3.611" stroke="rgb(23,23,23)" stroke-linejoin="round" stroke-linecap="round" stroke-miterlimit="4"/><path d=" M 562.78 306.345 C 562.623 306.176 562.467 306.02 562.323 305.851 C 559.246 302.558 557.07 298.529 556.003 294.151 C 555.533 292.746 555.589 291.218 556.16 289.851 C 557.496 287.359 561.191 287.491 563.755 288.683 C 570.038 291.583 573.733 298.132 579.186 302.393 C 585.397 307.256 593.558 308.869 601.43 309.182 C 609.302 309.495 617.21 308.652 625.07 309.29 C 629.776 309.675 634.687 310.71 638.19 313.864 C 641.295 316.664 642.896 320.809 643.59 324.938 C 644.284 329.067 644.18 333.267 644.457 337.444 C 645.275 349.661 649.404 361.493 655.057 372.362 C 656.429 374.986 657.91 378.091 656.61 380.752 C 655.057 383.905 650.327 384.17 647.438 382.152 C 646.418 381.421 645.53 380.522 644.814 379.492" fill="none" vector-effect="non-scaling-stroke" stroke-width="3.611" stroke="rgb(23,23,23)" stroke-linejoin="round" stroke-linecap="round" stroke-miterlimit="4"/><path d=" M 642.199 373.4 C 643.265 375.339 644.144 377.374 644.823 379.479 L 644.823 379.491 C 645.69 382.2 646.22 385.006 646.4 387.844 C 646.508 389.674 646.351 391.768 644.919 392.9 C 644.251 393.338 643.476 393.588 642.677 393.621 C 641.878 393.655 641.085 393.472 640.381 393.092 C 637.541 391.78 635.881 388.819 634.628 385.966 C 633.375 383.113 632.257 380.044 629.946 377.95" fill="none" vector-effect="non-scaling-stroke" stroke-width="3.611" stroke="rgb(23,23,23)" stroke-linejoin="round" stroke-linecap="round" stroke-miterlimit="4"/><path d=" M 379.738 408.523 C 380.664 411.148 381.455 413.818 382.109 416.523 C 382.82 419.676 384.3 423.083 382.362 425.723 C 380.497 428.25 376.922 428.948 373.696 429.43 C 368.869 430.176 364.038 430.915 359.204 431.645 C 355.677 432.186 351.885 432.692 348.672 431.199 C 343.58 428.828 341.558 420.956 340.764 415.66" fill="none" vector-effect="non-scaling-stroke" stroke-width="3.611" stroke="rgb(23,23,23)" stroke-linejoin="round" stroke-linecap="round" stroke-miterlimit="4"/><path d=" M 383.83 394.874 C 387.669 397.305 386.911 403.274 383.541 406.224 C 382.412 407.198 381.128 407.975 379.741 408.524 C 376.844 409.571 373.828 410.254 370.762 410.558 L 344.362 414.169 C 343.186 414.335 341.998 414.4 340.811 414.362 C 339.011 414.329 337.219 414.103 335.466 413.688 C 330.375 412.496 328.798 405.924 330.038 398.919" fill="none" vector-effect="non-scaling-stroke" stroke-width="3.611" stroke="rgb(23,23,23)" stroke-linejoin="round" stroke-linecap="round" stroke-miterlimit="4"/><path d=" M 383.722 394.729 C 381.922 396.065 379.161 396.511 375.357 396.823 C 363.019 397.847 350.573 398.223 338.2 398.923 C 336.588 399.064 334.966 399.035 333.361 398.839 C 332.58 398.722 331.819 398.499 331.098 398.177 C 328.426 396.809 326.332 394.529 325.198 391.749 C 318.398 376.787 318.798 374.705 299.789 358.684 C 236.608 305.41 261.705 256.036 304.579 249.536 C 336.717 244.661 411.934 260.092 389.763 324.187 C 374.091 369.493 386.356 379.135 386.344 387.524 C 386.346 391.251 385.492 393.429 383.722 394.729 Z " fill="none" vector-effect="non-scaling-stroke" stroke-width="3.611" stroke="rgb(23,23,23)" stroke-linejoin="round" stroke-linecap="round" stroke-miterlimit="4"/><path d=" M 342.34 391.419 C 334.228 373.508 326.114 355.594 318 337.675 C 317.085 335.665 316.026 333.499 313.98 332.487 C 312.018 331.525 309.659 331.862 307.456 331.717 C 305.343 331.565 303.287 330.966 301.424 329.959 C 299.561 328.953 297.932 327.562 296.647 325.879 C 295.548 324.516 294.786 322.913 294.424 321.2 C 294.062 319.486 294.111 317.712 294.565 316.021 C 295.125 314.313 296.212 312.827 297.67 311.776 C 299.127 310.725 300.881 310.163 302.678 310.171 C 306.337 310.328 309.671 313.758 308.997 317.165 C 308.844 318.045 308.415 318.854 307.773 319.475 C 307.13 320.096 306.307 320.496 305.422 320.619 C 303.592 320.764 301.739 318.994 302.292 317.345" fill="none" vector-effect="non-scaling-stroke" stroke-width="3.611" stroke="rgb(23,23,23)" stroke-linejoin="round" stroke-linecap="round" stroke-miterlimit="4"/><path d=" M 373.058 391.13 C 365.943 366.884 360.791 342.104 357.651 317.03 C 361.322 316.802 363.561 311.975 361.262 309.243 C 358.963 306.511 353.474 307.473 352.415 310.819" fill="none" vector-effect="non-scaling-stroke" stroke-width="3.611" stroke="rgb(23,23,23)" stroke-linejoin="round" stroke-linecap="round" stroke-miterlimit="4"/><path d=" M 346.131 312.508 C 346.889 315.926 343.772 319.248 340.209 320.127 C 336.646 321.006 332.854 320.067 329.364 318.911 C 325.874 317.755 322.358 316.359 318.675 316.347" fill="none" vector-effect="non-scaling-stroke" stroke-width="3.611" stroke="rgb(23,23,23)" stroke-linejoin="round" stroke-linecap="round" stroke-miterlimit="4"/><path d=" M 531.545 238.049 C 523.829 239.949 515.536 238.001 508.627 234.077 C 501.537 230.044 495.555 223.821 492.594 216.226 C 485.866 198.894 500.594 174.688 520.471 176.999 C 538.983 179.165 555.281 199.868 550.382 218.199 C 547.927 227.384 540.994 235.714 531.545 238.049 Z " fill="none" vector-effect="non-scaling-stroke" stroke-width="3.611" stroke="rgb(23,23,23)" stroke-linejoin="round" stroke-linecap="round" stroke-miterlimit="4"/><path d=" M 529.848 169.066 C 537.395 171.862 543.945 176.829 548.673 183.341 C 550.919 179.51 554.148 176.347 558.025 174.181 L 569.292 188.553 L 557.881 198.23" fill="none" vector-effect="non-scaling-stroke" stroke-width="3.611" stroke="rgb(23,23,23)" stroke-linejoin="round" stroke-linecap="round" stroke-miterlimit="4"/><path d=" M 560.914 204.128 C 560.83 208.835 560.746 213.542 560.661 218.247 C 560.562 219.398 560.698 220.557 561.061 221.654 C 562.493 225.169 567.741 225.445 569.787 228.647 C 567.392 232.366 564.996 236.09 562.601 239.817 C 562.24 240.371 561.819 240.985 561.169 241.105 C 560.512 241.122 559.874 240.885 559.388 240.443 C 556.475 238.361 553.566 236.275 550.661 234.184" fill="none" vector-effect="non-scaling-stroke" stroke-width="3.611" stroke="rgb(23,23,23)" stroke-linejoin="round" stroke-linecap="round" stroke-miterlimit="4"/><path d=" M 546.723 239.781 C 543.55 242.588 539.743 244.583 535.63 245.595 C 531.517 246.608 527.22 246.608 523.107 245.595 C 522.638 250.121 522.156 254.658 521.687 259.184 C 514.801 257.94 508 256.27 501.321 254.184 C 503.187 250.584 505.054 246.984 506.921 243.384 C 506.794 243.429 506.659 243.448 506.524 243.439 C 506.39 243.43 506.258 243.394 506.138 243.334 C 506.018 243.273 505.911 243.189 505.824 243.086 C 505.737 242.983 505.672 242.863 505.633 242.734" fill="none" vector-effect="non-scaling-stroke" stroke-width="3.611" stroke="rgb(23,23,23)" stroke-linejoin="round" stroke-linecap="round" stroke-miterlimit="4"/><path d=" M 500.61 237.783 C 496.919 236.153 493.613 233.764 490.906 230.771 C 488.199 227.779 486.152 224.25 484.899 220.414 C 484.369 218.777 483.888 216.935 482.467 215.973 C 479.747 214.143 475.883 216.779 472.874 215.491 C 473.141 208.486 473.406 201.476 473.668 194.463 C 477.063 195.463 480.445 196.463 483.839 197.472" fill="none" vector-effect="non-scaling-stroke" stroke-width="3.611" stroke="rgb(23,23,23)" stroke-linejoin="round" stroke-linecap="round" stroke-miterlimit="4"/><path d=" M 487.61 191.406 C 488.185 187.628 489.731 184.064 492.098 181.063 C 494.464 178.063 497.57 175.729 501.11 174.29 C 500.81 170.209 500.496 166.129 500.195 162.048 L 512.815 160.5 C 513.78 160.295 514.781 160.353 515.715 160.668 C 516.303 160.986 516.794 161.457 517.135 162.031 C 517.476 162.606 517.655 163.262 517.652 163.93 C 517.628 165.268 517.359 166.589 516.858 167.83" fill="none" vector-effect="non-scaling-stroke" stroke-width="3.611" stroke="rgb(23,23,23)" stroke-linejoin="round" stroke-linecap="round" stroke-miterlimit="4"/><path d=" M 525.525 837.305 C 516.534 834.128 505.34 836.463 496.469 841.554 C 493.73 843.105 491.185 844.976 488.886 847.127 C 479.75 855.746 475.14 868.493 474.886 881.047 C 474.823 884.694 475.081 888.339 475.657 891.94 C 477.148 900.747 480.023 909.262 484.178 917.169" fill="none" vector-effect="non-scaling-stroke" stroke-width="3.611" stroke="rgb(23,23,23)" stroke-linejoin="round" stroke-linecap="round" stroke-miterlimit="4"/><path d=" M 496.734 842.024 C 508.409 846.766 521.134 847.236 533.855 846.694 C 538.755 846.494 543.655 846.128 548.491 845.815 C 552.042 845.575 555.641 845.382 559.24 845.298 C 569.24 845.021 579.293 845.551 588.598 848.355 C 592.424 849.486 596.107 851.053 599.575 853.025 C 608.783 858.309 616.583 868.517 614.2 878.856 C 612.214 887.474 603.968 893.12 595.868 896.67 C 592.419 898.176 588.882 899.47 585.275 900.546 C 576.107 903.237 566.636 904.766 557.086 905.096 C 550.059 905.38 543.02 905.175 536.021 904.482 C 531.809 904.073 527.608 903.519 523.431 902.845 C 507.567 900.293 491.955 896.045 476.431 891.82" fill="none" vector-effect="non-scaling-stroke" stroke-width="3.611" stroke="rgb(23,23,23)" stroke-linejoin="miter" stroke-linecap="round" stroke-miterlimit="10"/><path d=" M 406.556 903.543 C 402.245 905.451 397.84 907.134 393.356 908.587 C 385.572 911.104 377.592 912.968 369.499 914.16 C 365.888 914.701 362.253 915.11 358.618 915.399 C 353.405 915.885 348.157 915.877 342.946 915.375 C 339.179 914.997 335.477 914.131 331.933 912.799 C 323.519 909.574 316.08 902.677 314.275 893.842 C 312.47 885.007 317.802 874.715 326.612 872.826" fill="none" vector-effect="non-scaling-stroke" stroke-width="3.611" stroke="rgb(23,23,23)" stroke-linejoin="miter" stroke-linecap="round" stroke-miterlimit="10"/><path d=" M 523.444 902.785 C 520.261 893.472 519.55 883.493 521.381 873.823 C 523.213 864.153 527.524 855.125 533.892 847.621" fill="none" vector-effect="non-scaling-stroke" stroke-width="3.611" stroke="rgb(23,23,23)" stroke-linejoin="miter" stroke-linecap="round" stroke-miterlimit="10"/><path d=" M 557.026 903.808 C 547.265 886.644 548.191 863.943 559.312 847.621" fill="none" vector-effect="non-scaling-stroke" stroke-width="3.611" stroke="rgb(23,23,23)" stroke-linejoin="miter" stroke-linecap="round" stroke-miterlimit="10"/><path d=" M 585.252 900.474 C 581.403 892.307 579.677 883.301 580.232 874.29 C 580.788 865.279 583.607 856.553 588.43 848.921" fill="none" vector-effect="non-scaling-stroke" stroke-width="3.611" stroke="rgb(23,23,23)" stroke-linejoin="miter" stroke-linecap="round" stroke-miterlimit="10"/><path d=" M 336.5 873.9 C 336.584 874.177 336.656 874.454 336.74 874.73 C 340.424 887.557 342.554 900.78 343.084 914.114" fill="none" vector-effect="non-scaling-stroke" stroke-width="3.611" stroke="rgb(23,23,23)" stroke-linejoin="miter" stroke-linecap="round" stroke-miterlimit="10"/><path d=" M 369.482 914.1 C 368.314 905.615 367.151 897.125 365.991 888.631" fill="none" vector-effect="non-scaling-stroke" stroke-width="3.611" stroke="rgb(23,23,23)" stroke-linejoin="miter" stroke-linecap="round" stroke-miterlimit="10"/><path d=" M 393.123 907.889 C 393.295 904.956 392.709 902.029 391.423 899.389" fill="none" vector-effect="non-scaling-stroke" stroke-width="3.611" stroke="rgb(23,23,23)" stroke-linejoin="miter" stroke-linecap="round" stroke-miterlimit="10"/><path d=" M 633.9 840.327 C 633.96 840.339 634.008 840.363 634.068 840.375 C 641.128 842.492 647.467 846.514 652.389 852.001 C 657.311 857.487 660.624 864.225 661.964 871.472 C 663.304 878.72 662.619 886.196 659.985 893.08 C 657.35 899.964 652.868 905.987 647.032 910.488 C 646.719 910.729 646.406 910.97 646.081 911.199" fill="none" vector-effect="non-scaling-stroke" stroke-width="3.611" stroke="rgb(23,23,23)" stroke-linejoin="miter" stroke-linecap="round" stroke-miterlimit="10"/><path d=" M 355.772 938.558 C 341.798 940.243 327.534 941.558 313.74 938.751 C 299.946 935.944 286.499 928.4 279.664 916.1 C 276.86 911.047 275.269 905.411 275.019 899.638 C 274.768 893.865 275.864 888.112 278.221 882.835 C 280.577 877.559 284.129 872.903 288.595 869.236 C 293.062 865.569 298.32 862.991 303.954 861.707 C 304.075 861.671 304.195 861.647 304.316 861.623" fill="none" vector-effect="non-scaling-stroke" stroke-width="3.611" stroke="rgb(23,23,23)" stroke-linejoin="miter" stroke-linecap="round" stroke-miterlimit="10"/><line x1="572.674" y1="569.165" x2="479.787" y2="591.252" vector-effect="non-scaling-stroke" stroke-width="3.611" stroke="rgb(23,23,23)" stroke-linejoin="round" stroke-linecap="round" stroke-miterlimit="4"/><line x1="556.821" y1="592.396" x2="497.913" y2="607.682" vector-effect="non-scaling-stroke" stroke-width="3.611" stroke="rgb(23,23,23)" stroke-linejoin="round" stroke-linecap="round" stroke-miterlimit="4"/><line x1="431.075" y1="576.531" x2="456.556" y2="765.158" vector-effect="non-scaling-stroke" stroke-width="3.611" stroke="rgb(23,23,23)" stroke-linejoin="round" stroke-linecap="round" stroke-miterlimit="4"/><path d=" M 703.992 382.301 L 692.577 378.639 C 692.406 378.584 692.222 378.583 692.05 378.635 C 691.878 378.688 691.726 378.793 691.615 378.934 C 691.505 379.076 691.44 379.248 691.43 379.428 C 691.42 379.608 691.466 379.786 691.561 379.939 L 697.853 390.139 C 697.944 390.287 697.989 390.458 697.983 390.632 C 697.977 390.805 697.919 390.973 697.818 391.114 L 690.809 400.839 C 690.704 400.984 690.647 401.159 690.644 401.338 C 690.641 401.517 690.694 401.693 690.794 401.842 C 690.894 401.991 691.037 402.105 691.204 402.17 C 691.371 402.235 691.554 402.248 691.729 402.206 L 703.377 399.375 C 703.546 399.334 703.723 399.344 703.886 399.403 C 704.049 399.463 704.19 399.57 704.293 399.71 L 711.375 409.381 C 711.481 409.526 711.629 409.634 711.798 409.693 C 711.968 409.751 712.152 409.756 712.324 409.707 C 712.497 409.657 712.65 409.556 712.764 409.417 C 712.877 409.278 712.945 409.108 712.959 408.929 L 713.865 396.976 C 713.878 396.803 713.942 396.638 714.048 396.501 C 714.155 396.364 714.3 396.262 714.465 396.208 L 725.852 392.461 C 726.022 392.405 726.171 392.298 726.279 392.154 C 726.387 392.011 726.448 391.838 726.455 391.658 C 726.461 391.479 726.412 391.302 726.315 391.151 C 726.218 391 726.077 390.883 725.911 390.815 L 714.824 386.259 C 714.663 386.193 714.526 386.081 714.429 385.937 C 714.332 385.793 714.28 385.623 714.28 385.45 L 714.235 373.463 C 714.234 373.283 714.178 373.108 714.075 372.962 C 713.972 372.815 713.826 372.703 713.658 372.641 C 713.489 372.58 713.306 372.571 713.132 372.617 C 712.959 372.662 712.803 372.76 712.687 372.897 L 704.929 382.034 C 704.816 382.165 704.667 382.26 704.5 382.308 C 704.334 382.355 704.157 382.353 703.992 382.301 L 703.992 382.301 Z " fill="none" vector-effect="non-scaling-stroke" stroke-width="3.611" stroke="rgb(23,23,23)" stroke-linejoin="miter" stroke-linecap="butt" stroke-miterlimit="10"/><path d=" M 286.679 185.491 L 269.434 189.234 C 269.177 189.291 268.943 189.425 268.764 189.619 C 268.586 189.812 268.47 190.056 268.433 190.317 C 268.397 190.578 268.44 190.843 268.559 191.079 C 268.677 191.314 268.865 191.508 269.096 191.634 L 284.633 200.001 C 284.858 200.122 285.042 200.307 285.162 200.533 C 285.282 200.758 285.332 201.015 285.306 201.269 L 283.538 218.827 C 283.512 219.09 283.567 219.354 283.695 219.585 C 283.824 219.816 284.02 220.002 284.258 220.118 C 284.495 220.234 284.763 220.274 285.024 220.234 C 285.285 220.193 285.527 220.073 285.718 219.891 L 298.476 207.701 C 298.662 207.525 298.895 207.407 299.146 207.363 C 299.398 207.319 299.657 207.35 299.891 207.452 L 316.043 214.56 C 316.285 214.666 316.554 214.695 316.813 214.644 C 317.072 214.593 317.31 214.464 317.493 214.274 C 317.677 214.084 317.798 213.842 317.84 213.581 C 317.882 213.32 317.844 213.053 317.729 212.815 L 310.077 196.915 C 309.967 196.684 309.928 196.427 309.963 196.174 C 309.999 195.921 310.108 195.684 310.277 195.493 L 322.029 182.328 C 322.206 182.131 322.317 181.884 322.349 181.622 C 322.381 181.359 322.331 181.093 322.207 180.86 C 322.083 180.626 321.891 180.436 321.655 180.315 C 321.42 180.195 321.153 180.149 320.891 180.185 L 303.403 182.548 C 303.15 182.582 302.892 182.541 302.663 182.428 C 302.433 182.316 302.242 182.139 302.113 181.918 L 293.224 166.674 C 293.091 166.446 292.891 166.264 292.652 166.152 C 292.412 166.041 292.144 166.006 291.884 166.052 C 291.623 166.098 291.383 166.222 291.196 166.408 C 291.008 166.595 290.883 166.834 290.835 167.094 L 287.677 184.456 C 287.632 184.708 287.513 184.94 287.335 185.125 C 287.158 185.309 286.929 185.436 286.679 185.491 Z " fill="none" vector-effect="non-scaling-stroke" stroke-width="3.611" stroke="rgb(23,23,23)" stroke-linejoin="miter" stroke-linecap="butt" stroke-miterlimit="10"/><line x1="241.316" y1="461.545" x2="144.456" y2="375.73" vector-effect="non-scaling-stroke" stroke-width="3.611" stroke="rgb(23,23,23)" stroke-linejoin="round" stroke-linecap="round" stroke-miterlimit="4"/><line x1="254.061" y1="444.551" x2="243.016" y2="421.612" vector-effect="non-scaling-stroke" stroke-width="3.611" stroke="rgb(23,23,23)" stroke-linejoin="round" stroke-linecap="round" stroke-miterlimit="4"/><line x1="272.754" y1="440.304" x2="265.107" y2="356.189" vector-effect="non-scaling-stroke" stroke-width="3.611" stroke="rgb(23,23,23)" stroke-linejoin="round" stroke-linecap="round" stroke-miterlimit="4"/><line x1="243.016" y1="491.282" x2="220.075" y2="492.132" vector-effect="non-scaling-stroke" stroke-width="3.611" stroke="rgb(23,23,23)" stroke-linejoin="round" stroke-linecap="round" stroke-miterlimit="4"/><line x1="242.166" y1="517.621" x2="170.796" y2="572.849" vector-effect="non-scaling-stroke" stroke-width="3.611" stroke="rgb(23,23,23)" stroke-linejoin="round" stroke-linecap="round" stroke-miterlimit="4"/><linearGradient id="_lgradient_6" x1="0.4999715920975447" y1="0" x2="0.49997159209754455" y2="1"><stop offset="0%" stop-opacity="1" style="stop-color:rgb(36,233,193)"/><stop offset="100%" stop-opacity="1" style="stop-color:rgb(14,171,166)"/></linearGradient><path d=" M 209 786.138 C 201.756 777.39 196.672 767.059 194.16 755.982 C 191.648 744.905 191.777 733.393 194.538 722.375" fill="none" vector-effect="non-scaling-stroke" stroke-width="3.611" stroke="url(#_lgradient_6)" stroke-linejoin="round" stroke-linecap="round" stroke-miterlimit="4"/><path d=" M 473.275 812.234 C 486.227 817.338 515.991 832.191 523.191 836.007 C 523.975 836.422 524.784 836.789 525.612 837.106 L 525.527 837.306 C 516.536 834.129 505.342 836.464 496.471 841.555 C 493.732 843.106 491.187 844.977 488.888 847.128 C 479.751 855.747 475.141 868.493 474.888 881.047 C 474.825 884.694 475.083 888.339 475.659 891.941 C 477.15 900.747 480.026 909.263 484.18 917.17 L 483.78 919.83 C 467.314 917.338 450.932 914.233 434.755 910.381 C 425.345 908.154 416.011 905.65 406.755 902.87 C 401.755 901.366 396.789 899.777 391.855 898.104 C 383.153 895.167 374.559 891.941 366.073 888.426 C 361.234 886.42 356.431 884.309 351.665 882.095 C 346.638 879.771 341.663 877.316 336.739 874.728 C 333.851 873.224 330.974 871.682 328.121 870.082 C 321.838 866.579 315.675 862.872 309.633 858.96 C 275.677 836.993 245.874 808.779 224.461 774.607 C 214.772 759.128 206.659 740.207 212.846 723.018 C 219.009 705.89 238.134 696.141 256.334 695.671 C 274.534 695.201 286.932 699.968 303.554 707.407 L 304.228 707.286 L 310.138 741.928 L 441.699 808.852 L 457.118 816.7 L 473.175 811.909 L 473.275 812.234 Z  M 221.748 723.297 C 221.99 722.33 222.971 721.743 223.938 721.985 C 224.905 722.227 225.493 723.208 225.25 724.175 C 223.9 729.566 223.189 734.426 223.639 740.107 C 224.09 745.811 225.72 752.443 229.182 761.346 C 234.398 774.758 241.353 782.209 247.676 788.983 C 249.668 791.117 251.597 793.183 253.39 795.348 C 254.026 796.116 253.919 797.254 253.151 797.89 C 252.382 798.526 251.244 798.419 250.608 797.651 C 248.992 795.699 247.182 793.762 245.265 791.711 L 245.265 791.711 C 238.876 784.875 231.309 776.78 225.816 762.654 C 222.278 753.557 220.528 746.566 220.039 740.392 C 219.548 734.196 220.338 728.924 221.748 723.297 Z " fill-rule="evenodd" fill="rgb(23,23,23)"/><linearGradient id="_lgradient_7" x1="0.499993996381626" y1="0" x2="0.49999399638162584" y2="1"><stop offset="0%" stop-opacity="1" style="stop-color:rgb(36,233,193)"/><stop offset="100%" stop-opacity="1" style="stop-color:rgb(14,171,166)"/></linearGradient><path d=" M 479.754 503.5 C 455.162 479.1 452.079 436.176 472.935 408.517 C 483.727 394.204 500.013 383.554 506.263 366.753 C 514.142 345.574 503.394 322.161 490.663 303.486 C 477.932 284.811 462.446 266.459 459.597 244.042" fill="none" vector-effect="non-scaling-stroke" stroke-width="3.611" stroke="url(#_lgradient_7)" stroke-linejoin="round" stroke-linecap="round" stroke-miterlimit="4"/><linearGradient id="_lgradient_8" x1="0.5000051952339168" y1="0" x2="0.5000051952339166" y2="1"><stop offset="0%" stop-opacity="1" style="stop-color:rgb(36,233,193)"/><stop offset="100%" stop-opacity="1" style="stop-color:rgb(14,171,166)"/></linearGradient><path d=" M 401.8 504.306 C 405.942 490.553 396.735 475.792 384.649 468.03 C 372.563 460.268 358.049 457.53 344.349 453.23 C 333.997 449.98 323.791 445.672 315.408 438.785 C 307.025 431.898 300.582 422.15 299.456 411.359" fill="none" vector-effect="non-scaling-stroke" stroke-width="3.611" stroke="url(#_lgradient_8)" stroke-linejoin="round" stroke-linecap="round" stroke-miterlimit="4"/><linearGradient id="_lgradient_9" x1="0.4999754793781577" y1="0" x2="0.4999754793781575" y2="1"><stop offset="0%" stop-opacity="1" style="stop-color:rgb(36,233,193)"/><stop offset="100%" stop-opacity="1" style="stop-color:rgb(14,171,166)"/></linearGradient><line x1="615.473" y1="263.04" x2="635.864" y2="242.647" vector-effect="non-scaling-stroke" stroke-width="3.611" stroke="url(#_lgradient_9)" stroke-linejoin="round" stroke-linecap="round" stroke-miterlimit="4"/><linearGradient id="_lgradient_10" x1="0.49996763125525945" y1="0" x2="0.4999676312552593" y2="1"><stop offset="0%" stop-opacity="1" style="stop-color:rgb(36,233,193)"/><stop offset="100%" stop-opacity="1" style="stop-color:rgb(14,171,166)"/></linearGradient><line x1="634.899" y1="265.16" x2="619.452" y2="239.76" vector-effect="non-scaling-stroke" stroke-width="3.611" stroke="url(#_lgradient_10)" stroke-linejoin="round" stroke-linecap="round" stroke-miterlimit="4"/><linearGradient id="_lgradient_11" x1="0.5" y1="0" x2="0.49999999999999983" y2="1"><stop offset="0%" stop-opacity="1" style="stop-color:rgb(36,233,193)"/><stop offset="100%" stop-opacity="1" style="stop-color:rgb(14,171,166)"/></linearGradient><line x1="230.442" y1="343.151" x2="207.378" y2="329.767" vector-effect="non-scaling-stroke" stroke-width="3.611" stroke="url(#_lgradient_11)" stroke-linejoin="round" stroke-linecap="round" stroke-miterlimit="4"/><linearGradient id="_lgradient_12" x1="0.4999496323159036" y1="0" x2="0.49994963231590345" y2="1"><stop offset="0%" stop-opacity="1" style="stop-color:rgb(36,233,193)"/><stop offset="100%" stop-opacity="1" style="stop-color:rgb(14,171,166)"/></linearGradient><path d=" M 215.145 350.288 C 217.442 341.939 220.777 333.912 225.072 326.394" fill="none" vector-effect="non-scaling-stroke" stroke-width="3.611" stroke="url(#_lgradient_12)" stroke-linejoin="round" stroke-linecap="round" stroke-miterlimit="4"/><linearGradient id="_lgradient_13" x1="0.5000000000000036" y1="0" x2="0.5000000000000033" y2="1"><stop offset="0%" stop-opacity="1" style="stop-color:rgb(36,233,193)"/><stop offset="100%" stop-opacity="1" style="stop-color:rgb(14,171,166)"/></linearGradient><path d=" M 672.937 336.646 C 676.337 332.398 679.737 328.15 683.137 323.902" fill="none" vector-effect="non-scaling-stroke" stroke-width="3.611" stroke="url(#_lgradient_13)" stroke-linejoin="round" stroke-linecap="round" stroke-miterlimit="4"/><linearGradient id="_lgradient_14" x1="0.5000000000000036" y1="0" x2="0.5000000000000033" y2="1"><stop offset="0%" stop-opacity="1" style="stop-color:rgb(36,233,193)"/><stop offset="100%" stop-opacity="1" style="stop-color:rgb(14,171,166)"/></linearGradient><path d=" M 686.583 338.3 C 681.481 332.64 676.378 326.98 671.275 321.32" fill="none" vector-effect="non-scaling-stroke" stroke-width="3.611" stroke="url(#_lgradient_14)" stroke-linejoin="round" stroke-linecap="round" stroke-miterlimit="4"/><path d=" M 401.9 184.56 C 406.328 178.759 409.51 172.106 411.247 165.019" fill="none" vector-effect="non-scaling-stroke" stroke-width="3.611" stroke="rgb(23,23,23)" stroke-linejoin="round" stroke-linecap="round" stroke-miterlimit="4"/><path d=" M 417.031 182.158 C 411.927 176.498 406.824 170.838 401.721 165.179" fill="none" vector-effect="non-scaling-stroke" stroke-width="3.611" stroke="rgb(23,23,23)" stroke-linejoin="round" stroke-linecap="round" stroke-miterlimit="4"/><path d=" M 491.335 446.701 C 496.698 444.013 501.047 439.663 503.735 434.301" fill="none" vector-effect="non-scaling-stroke" stroke-width="3.611" stroke="rgb(23,23,23)" stroke-linejoin="round" stroke-linecap="round" stroke-miterlimit="4"/><path d=" M 504.708 449.651 C 499.537 444.6 495.483 438.522 492.808 431.808" fill="none" vector-effect="non-scaling-stroke" stroke-width="3.611" stroke="rgb(23,23,23)" stroke-linejoin="round" stroke-linecap="round" stroke-miterlimit="4"/><linearGradient id="_lgradient_15" x1="0.49998692229226016" y1="0" x2="0.49998692229226" y2="1"><stop offset="0%" stop-opacity="1" style="stop-color:rgb(36,233,193)"/><stop offset="100%" stop-opacity="1" style="stop-color:rgb(14,171,166)"/></linearGradient><path d=" M 700.126 671.408 L 738.359 675.231 L 707.348 705.393 L 700.126 671.408 Z " fill="none" vector-effect="non-scaling-stroke" stroke-width="3.611" stroke="url(#_lgradient_15)" stroke-linejoin="round" stroke-linecap="round" stroke-miterlimit="4"/><linearGradient id="_lgradient_16" x1="0.5" y1="0" x2="0.49999999999999983" y2="1"><stop offset="0%" stop-opacity="1" style="stop-color:rgb(36,233,193)"/><stop offset="100%" stop-opacity="1" style="stop-color:rgb(14,171,166)"/></linearGradient><path d=" M 786.791 687.977 L 772.347 627.227 L 813.979 659.089 L 786.791 687.977 Z " fill="none" vector-effect="non-scaling-stroke" stroke-width="3.611" stroke="url(#_lgradient_16)" stroke-linejoin="round" stroke-linecap="round" stroke-miterlimit="4"/><linearGradient id="_lgradient_17" x1="0.5" y1="0" x2="0.49999999999999983" y2="1"><stop offset="0%" stop-opacity="1" style="stop-color:rgb(36,233,193)"/><stop offset="100%" stop-opacity="1" style="stop-color:rgb(14,171,166)"/></linearGradient><path d=" M 751.53 571.575 L 725.19 552.457 L 747.706 542.262 L 751.53 571.575 Z " fill="none" vector-effect="non-scaling-stroke" stroke-width="3.611" stroke="url(#_lgradient_17)" stroke-linejoin="round" stroke-linecap="round" stroke-miterlimit="4"/><linearGradient id="_lgradient_18" x1="0.49998243333450354" y1="0" x2="0.4999824333345034" y2="0.9999999999999982"><stop offset="0%" stop-opacity="1" style="stop-color:rgb(36,233,193)"/><stop offset="100%" stop-opacity="1" style="stop-color:rgb(14,171,166)"/></linearGradient><path d=" M 681.858 585.169 L 679.733 621.279 L 653.395 602.586 L 681.858 585.169 Z " fill="none" vector-effect="non-scaling-stroke" stroke-width="3.611" stroke="url(#_lgradient_18)" stroke-linejoin="round" stroke-linecap="round" stroke-miterlimit="4"/><linearGradient id="_lgradient_19" x1="0.5" y1="0" x2="0.49999999999999983" y2="1"><stop offset="0%" stop-opacity="1" style="stop-color:rgb(36,233,193)"/><stop offset="100%" stop-opacity="1" style="stop-color:rgb(14,171,166)"/></linearGradient><path d=" M 651.271 530.79 L 681.434 508.7 L 644.474 494.256 L 651.271 530.79 Z " fill="none" vector-effect="non-scaling-stroke" stroke-width="3.611" stroke="url(#_lgradient_19)" stroke-linejoin="round" stroke-linecap="round" stroke-miterlimit="4"/><linearGradient id="_lgradient_20" x1="0.50001705727834" y1="0" x2="0.5000170572783398" y2="1"><stop offset="0%" stop-opacity="1" style="stop-color:rgb(36,233,193)"/><stop offset="100%" stop-opacity="1" style="stop-color:rgb(14,171,166)"/></linearGradient><path d=" M 613.463 487.035 L 584.15 484.061 L 602.842 468.343 L 613.463 487.035 Z " fill="none" vector-effect="non-scaling-stroke" stroke-width="3.611" stroke="url(#_lgradient_20)" stroke-linejoin="round" stroke-linecap="round" stroke-miterlimit="4"/><linearGradient id="_lgradient_21" x1="0.500014179972208" y1="0" x2="0.5000141799722078" y2="1"><stop offset="0%" stop-opacity="1" style="stop-color:rgb(36,233,193)"/><stop offset="100%" stop-opacity="1" style="stop-color:rgb(14,171,166)"/></linearGradient><path d=" M 537.419 481.511 L 518.727 503.602 L 502.158 480.661 L 537.419 481.511 Z " fill="none" vector-effect="non-scaling-stroke" stroke-width="3.611" stroke="url(#_lgradient_21)" stroke-linejoin="round" stroke-linecap="round" stroke-miterlimit="4"/><linearGradient id="_lgradient_22" x1="0.4999877399897006" y1="0" x2="0.4999877399897004" y2="1"><stop offset="0%" stop-opacity="1" style="stop-color:rgb(36,233,193)"/><stop offset="100%" stop-opacity="1" style="stop-color:rgb(14,171,166)"/></linearGradient><path d=" M 430.788 485.761 L 448.206 520.596 L 407.423 515.499 L 430.788 485.761 Z " fill="none" vector-effect="non-scaling-stroke" stroke-width="3.611" stroke="url(#_lgradient_22)" stroke-linejoin="round" stroke-linecap="round" stroke-miterlimit="4"/><path d=" M 444.348 508.448 C 424.036 495.302 412.415 469.886 415.76 445.923 C 418.892 423.492 433.46 404.604 442.98 384.055 C 457.602 352.51 459.915 314.076 443.43 283.463 C 424.979 249.195 387.084 229.9 364.052 198.528 C 354.492 185.351 347.72 170.362 344.149 154.478 C 340.578 138.595 340.284 122.15 343.284 106.148 C 345.631 94.007 350.097 81.912 358.524 72.863 C 366.951 63.814 379.884 58.321 391.93 61.114 C 403.976 63.907 413.715 76.354 411.311 88.484" fill="none" vector-effect="non-scaling-stroke" stroke-width="3.611" stroke="rgb(23,23,23)" stroke-linejoin="round" stroke-linecap="round" stroke-miterlimit="4"/><line x1="778.845" y1="594.612" x2="796.382" y2="588.877" vector-effect="non-scaling-stroke" stroke-width="3.611" stroke="rgb(23,23,23)" stroke-linejoin="round" stroke-linecap="round" stroke-miterlimit="4"/><path d=" M 789.623 598.621 C 788.568 593.252 786.655 588.088 783.959 583.327" fill="none" vector-effect="non-scaling-stroke" stroke-width="3.611" stroke="rgb(23,23,23)" stroke-linejoin="round" stroke-linecap="round" stroke-miterlimit="4"/><line x1="716.905" y1="521.346" x2="728.899" y2="510.69" vector-effect="non-scaling-stroke" stroke-width="3.611" stroke="rgb(23,23,23)" stroke-linejoin="round" stroke-linecap="round" stroke-miterlimit="4"/><path d=" M 731.899 523.218 C 726.311 518.641 721.159 513.555 716.509 508.027" fill="none" vector-effect="non-scaling-stroke" stroke-width="3.611" stroke="rgb(23,23,23)" stroke-linejoin="round" stroke-linecap="round" stroke-miterlimit="4"/><line x1="635.331" y1="579.12" x2="650.7" y2="565.037" vector-effect="non-scaling-stroke" stroke-width="3.611" stroke="rgb(23,23,23)" stroke-linejoin="round" stroke-linecap="round" stroke-miterlimit="4"/><line x1="651.506" y1="581.563" x2="640.215" y2="565.676" vector-effect="non-scaling-stroke" stroke-width="3.611" stroke="rgb(23,23,23)" stroke-linejoin="round" stroke-linecap="round" stroke-miterlimit="4"/><path d=" M 461.2 515.401 C 462.891 511.621 464.581 507.841 466.271 504.061" fill="none" vector-effect="non-scaling-stroke" stroke-width="3.611" stroke="rgb(23,23,23)" stroke-linejoin="round" stroke-linecap="round" stroke-miterlimit="4"/><path d=" M 470.8 513.45 C 465.496 511.483 460.572 508.614 456.247 504.969" fill="none" vector-effect="non-scaling-stroke" stroke-width="3.611" stroke="rgb(23,23,23)" stroke-linejoin="round" stroke-linecap="round" stroke-miterlimit="4"/><line x1="747.14" y1="705.678" x2="757.34" y2="693.217" vector-effect="non-scaling-stroke" stroke-width="3.611" stroke="rgb(23,23,23)" stroke-linejoin="round" stroke-linecap="round" stroke-miterlimit="4"/><path d=" M 759.6 707.375 C 755.256 703.033 750.914 698.69 746.572 694.347" fill="none" vector-effect="non-scaling-stroke" stroke-width="3.611" stroke="rgb(23,23,23)" stroke-linejoin="round" stroke-linecap="round" stroke-miterlimit="4"/><path d=" M 249.31 308.711 C 246.476 294.888 246.958 280.591 250.716 266.99" fill="none" vector-effect="non-scaling-stroke" stroke-width="3.611" stroke="rgb(23,23,23)" stroke-linejoin="round" stroke-linecap="round" stroke-miterlimit="4"/><path d=" M 583.619 202.5 C 584.61 194.648 583.65 186.672 580.823 179.279 C 577.996 171.886 573.39 165.304 567.412 160.116" fill="none" vector-effect="non-scaling-stroke" stroke-width="3.611" stroke="rgb(23,23,23)" stroke-linejoin="round" stroke-linecap="round" stroke-miterlimit="4"/><path d=" M 464.513 228.031 C 461.433 222.15 459.714 215.653 459.482 209.018 C 459.25 202.384 460.511 195.782 463.172 189.7" fill="none" vector-effect="non-scaling-stroke" stroke-width="3.611" stroke="rgb(23,23,23)" stroke-linejoin="round" stroke-linecap="round" stroke-miterlimit="4"/><path d=" M 236.178 296.415 C 237.041 290 237.904 283.585 238.768 277.171" fill="none" vector-effect="non-scaling-stroke" stroke-width="3.611" stroke="rgb(23,23,23)" stroke-linejoin="round" stroke-linecap="round" stroke-miterlimit="4"/><linearGradient id="_lgradient_23" x1="0.5000017029102493" y1="0" x2="0.500001702910249" y2="0.9999993152479423" gradientTransform="matrix(-150.907,0,0,79.779,434.757,858.955)" gradientUnits="userSpaceOnUse"><stop offset="0%" stop-opacity="1" style="stop-color:rgb(36,233,193)"/><stop offset="100%" stop-opacity="1" style="stop-color:rgb(14,171,166)"/></linearGradient><path d=" M 284.563 900.506 C 281.169 885.725 290.254 868.308 303.954 861.7 C 305.594 860.901 307.31 860.268 309.076 859.81 L 309.642 858.955 C 315.697 862.868 321.859 866.575 328.13 870.077 L 326.613 872.822 C 317.803 874.711 312.471 885.003 314.276 893.838 C 316.081 902.673 323.52 909.57 331.934 912.795 C 335.478 914.127 339.18 914.993 342.947 915.371 C 348.158 915.873 353.406 915.881 358.619 915.395 C 362.254 915.106 365.889 914.697 369.5 914.156 C 377.593 912.964 385.573 911.099 393.357 908.583 C 397.841 907.13 402.247 905.447 406.557 903.539 L 406.757 902.865 C 416.024 905.633 425.357 908.137 434.757 910.376 L 434.612 911.002 C 414.234 923.604 392.857 931.344 369.35 935.978 C 364.86 936.872 360.298 937.591 355.724 938.072 C 343.314 939.384 330.752 938.927 318.952 935.051 C 302.811 929.755 288.363 917.068 284.563 900.506 Z  M 303.872 874.659 C 304.66 874.047 305.794 874.19 306.406 874.978 C 307.017 875.765 306.874 876.9 306.087 877.511 C 302.886 879.996 300.396 883.279 298.865 887.031 C 297.335 890.783 296.819 894.871 297.368 898.886 C 297.504 899.874 296.812 900.784 295.824 900.92 C 294.836 901.055 293.926 900.364 293.791 899.376 C 293.155 894.734 293.752 890.006 295.522 885.667 C 297.291 881.329 300.171 877.532 303.872 874.659 Z " fill-rule="evenodd" fill="url(#_lgradient_23)"/></g></g></g></g></g></svg>