<?xml version="1.0" encoding="UTF-8" standalone="no"?><!-- Generator: Gravit.io --><svg xmlns="http://www.w3.org/2000/svg" xmlns:xlink="http://www.w3.org/1999/xlink" style="isolation:isolate" viewBox="0 0 400 400" width="400pt" height="400pt"><defs><clipPath id="_clipPath_sdG5Xz52V098WibHFdGOFulNorP6Cf2h"><rect width="400" height="400"/></clipPath></defs><g clip-path="url(#_clipPath_sdG5Xz52V098WibHFdGOFulNorP6Cf2h)"><g><defs><filter id="3n4JQbA348cdqDL66n9AYu1mp1NnDkz2" x="-200%" y="-200%" width="400%" height="400%" filterUnits="objectBoundingBox" color-interpolation-filters="sRGB"><feGaussianBlur xmlns="http://www.w3.org/2000/svg" in="SourceGraphic" stdDeviation="0.8587218125678057"/><feOffset xmlns="http://www.w3.org/2000/svg" dx="2" dy="2" result="pf_100_offsetBlur"/><feFlood xmlns="http://www.w3.org/2000/svg" flood-color="#A0CD3A" flood-opacity="1"/><feComposite xmlns="http://www.w3.org/2000/svg" in2="pf_100_offsetBlur" operator="in" result="pf_100_dropShadow"/><feBlend xmlns="http://www.w3.org/2000/svg" in="SourceGraphic" in2="pf_100_dropShadow" mode="normal"/></filter></defs><g filter="url(#3n4JQbA348cdqDL66n9AYu1mp1NnDkz2)"><path d=" M 148.368 233.752 C 151.875 208.863 215.963 136.757 241.139 128.38 C 254.834 123.824 258.787 119.764 280.898 118.502 C 311.491 119.932 318.118 130.748 328.94 148.138 C 339.762 165.527 342.169 174.456 340.536 223.873 Q 344.587 293.432 277.585 358.88 Q 284.888 288.18 257.705 233.752 C 254.609 227.553 226.139 248.353 198.067 276.559 Q 178.979 245.95 148.368 233.752 Z " fill="rgb(160,205,58)"/></g><defs><filter id="tioZvZk6BP5YCAtMcPWxMPixd4np9EPp" x="-200%" y="-200%" width="400%" height="400%" filterUnits="objectBoundingBox" color-interpolation-filters="sRGB"><feGaussianBlur xmlns="http://www.w3.org/2000/svg" in="SourceGraphic" stdDeviation="0.8587218125678057"/><feOffset xmlns="http://www.w3.org/2000/svg" dx="-2" dy="2" result="pf_100_offsetBlur"/><feFlood xmlns="http://www.w3.org/2000/svg" flood-color="#0071BB" flood-opacity="1"/><feComposite xmlns="http://www.w3.org/2000/svg" in2="pf_100_offsetBlur" operator="in" result="pf_100_dropShadow"/><feBlend xmlns="http://www.w3.org/2000/svg" in="SourceGraphic" in2="pf_100_dropShadow" mode="normal"/></filter></defs><g filter="url(#tioZvZk6BP5YCAtMcPWxMPixd4np9EPp)"><path d=" M 250.446 235.398 C 246.961 210.509 183.267 138.403 158.246 130.027 C 144.636 125.47 140.707 121.41 118.732 120.148 C 88.327 121.578 81.742 132.394 70.986 149.784 C 60.23 167.174 57.838 176.103 59.461 225.52 Q 55.435 295.078 122.025 360.527 Q 114.766 289.826 141.782 235.398 C 144.859 229.199 173.154 250 201.054 278.205 Q 220.024 247.596 250.446 235.398 Z " fill="rgb(0,113,187)"/></g><circle vector-effect="non-scaling-stroke" cx="126.96433163773716" cy="74.04824130989928" r="34.57499258159635" fill="rgb(0,113,187)"/><circle vector-effect="non-scaling-stroke" cx="271.8500148368074" cy="74.04824130989928" r="34.57499258159635" fill="rgb(160,205,58)"/></g></g></svg>